/* XPM */
static char *_50fb20ccaa94e18d0c853734ca9cb25o6uwBAuic5NDhgKA[] = {
/* columns rows colors chars-per-pixel */
"64 64 216 2 ",
"   c None",
".  c #130400",
"X  c #1A0B05",
"o  c #1D110C",
"O  c #220B02",
"+  c #25140E",
"@  c #2A170F",
"#  c #35160B",
"$  c #2C1912",
"%  c #291A14",
"&  c #331C12",
"*  c #3A1E13",
"=  c #2D211A",
"-  c #3C2115",
";  c #33221C",
":  c #3B241A",
">  c #352017",
",  c #372922",
"<  c #39302C",
"1  c #421F0F",
"2  c #442316",
"3  c #452519",
"4  c #492719",
"5  c #4B2A1D",
"6  c #452A1E",
"7  c #502D1E",
"8  c #4E2C21",
"9  c #432B21",
"0  c #512E23",
"q  c #552E2D",
"w  c #4E3125",
"e  c #4A342C",
"r  c #47342D",
"t  c #543125",
"y  c #563429",
"u  c #59362A",
"i  c #5D392D",
"p  c #583729",
"a  c #4C3A32",
"s  c #5D3D31",
"d  c #603C2E",
"f  c #623E31",
"g  c #663B3C",
"h  c #5F4338",
"j  c #654134",
"k  c #694436",
"l  c #66453A",
"z  c #6B4639",
"x  c #6D493C",
"c  c #714C3D",
"v  c #6D374D",
"b  c #5E4F49",
"n  c #6C4D42",
"m  c #614C43",
"M  c #744F41",
"N  c #6D5045",
"B  c #755143",
"V  c #7A5445",
"C  c #7B5648",
"Z  c #7E594A",
"A  c #7B5848",
"S  c #745955",
"D  c #6C4D53",
"F  c #7D645B",
"G  c #7A6B65",
"H  c #825C4D",
"J  c #895F4F",
"K  c #845E51",
"L  c #80515F",
"P  c #866153",
"I  c #8B6454",
"U  c #866559",
"Y  c #8E695B",
"T  c #8E6857",
"R  c #936C5B",
"E  c #966B5B",
"W  c #97705E",
"Q  c #99725E",
"!  c #8C4575",
"~  c #8F576D",
"^  c #856C63",
"/  c #936E61",
"(  c #85736C",
")  c #967266",
"_  c #9B7463",
"`  c #9C7469",
"'  c #9F7867",
"]  c #9D7E74",
"[  c #A17967",
"{  c #A47C6A",
"}  c #A87F6D",
"|  c #A67D74",
" . c #96837B",
".. c #89817D",
"X. c #A8806E",
"o. c #A68174",
"O. c #AB8675",
"+. c #AD8A7C",
"@. c #A8867A",
"#. c #B48A7D",
"$. c #D1907E",
"%. c #FE876A",
"&. c #FE8D72",
"*. c #FF957B",
"=. c #EC8B7C",
"-. c #9C548C",
";. c #9A5186",
":. c #9A4887",
">. c #A75997",
",. c #A56887",
"<. c #A87293",
"1. c #B975A8",
"2. c #C47CB3",
"3. c #968B87",
"4. c #9B9896",
"5. c #A78D82",
"6. c #B58D80",
"7. c #B99286",
"8. c #B6958A",
"9. c #A39A96",
"0. c #A7A09C",
"q. c #BF81A3",
"w. c #BBB7B5",
"e. c #B1A7A2",
"r. c #C29C91",
"t. c #CB9E91",
"y. c #CA9A8D",
"u. c #EE9486",
"i. c #FF9C85",
"p. c #FF9F88",
"a. c #C9A498",
"s. c #D4A99D",
"d. c #D8A89B",
"f. c #FDA38D",
"g. c #F4A393",
"h. c #F4AC9D",
"j. c #FCAE9B",
"k. c #F9A895",
"l. c #FDB19C",
"z. c #E3AD9E",
"x. c #C682B8",
"c. c #D6AEA3",
"v. c #DCB1A4",
"b. c #DBB4A9",
"n. c #D7B7AC",
"m. c #CABDB9",
"M. c #DBBDB3",
"N. c #CAB3AC",
"B. c #F6AFA0",
"V. c #E2B6A8",
"C. c #E8B6A9",
"Z. c #F6B1A4",
"A. c #FDB4A3",
"S. c #FEBAA7",
"D. c #FBB6A9",
"F. c #F5BBAD",
"G. c #FEBCAB",
"H. c #F5B7A8",
"J. c #EABEB3",
"K. c #FBBFB1",
"L. c #F7BDB1",
"P. c #DBC2BA",
"I. c #FFC1AE",
"U. c #E6C7BD",
"Y. c #E5C5BA",
"T. c #F7C1B5",
"R. c #FDC3B4",
"E. c #F4C6BA",
"W. c #F9C6B9",
"Q. c #F5CABE",
"!. c #FECABC",
"~. c #D493C9",
"^. c #DFA8D8",
"/. c #B8CAD4",
"(. c #A7D7EA",
"). c #BAE3F2",
"_. c #D5C9C9",
"`. c #D7D0CE",
"'. c #D9D6D4",
"]. c #EACAC2",
"[. c #E4CBC4",
"{. c #F4CDC2",
"}. c #FCCEC2",
"|. c #E6D3CC",
" X c #FED2C5",
".X c #F5D3CA",
"XX c #FDD5CA",
"oX c #FED9CD",
"OX c #FEDDD2",
"+X c #F0DCD4",
"@X c #EFDBD7",
"#X c #FFE1D6",
"$X c #FEE4DB",
"%X c #FFE9DE",
"&X c #F4E0D9",
"*X c #C1DAE5",
"=X c #C8EAF7",
"-X c #D5EDF6",
";X c #DBF3FB",
":X c #D5F1FC",
">X c #DCE3E7",
",X c #E9E7E7",
"<X c #FDE7E1",
"1X c #FFEBE3",
"2X c #FFEEE8",
"3X c #F5E6E1",
"4X c #FFF2EA",
"5X c #FFF2E7",
"6X c #E4F6FC",
"7X c #ECFAFE",
"8X c #E6F6FB",
"9X c #FFFCF6",
"0X c #F4FBFE",
"qX c white",
"wX c #FCF6F3",
"eX c #E1ECF1",
/* pixels */
"                                                                                                            { { } O.            ",
"                                                                                                        T [ [ [ [ { }           ",
"                                                        [ [ O.O.O.{ [ [ _ _ _ Q                       J I J J J T E Q           ",
"                                                  [ [ } { _ _ W R R Y R E R _ _ E E                 B z c c M M H H Q E         ",
"                                              _ } { ) W R R E T I I P P J I I I I R R I           f d d d f f k z c C K         ",
"                                            [ } _ E R I I I J H H A C Z A Z H H H H H R I   ~.x.L t t 0 q u d d f k z M         ",
"          E ) W W T H B                   X.[ Q E I J H H A V B c B B c c B B B A A Z J T R 2.~.2.D 4 0 0 0 y d i d k c         ",
"        _ { _ R T J H V k               X._ R I P Z A V B c c z c c x z k k k k x c c V H A H ,.>.-.q 7 0 0 t y p i i k         ",
"        _ _ _ R I H c k f i t         } W E I H H V c c x x k k j k j d f f f f f g z c M V Z K ! :.v 4 8 7 y 0 y i f k         ",
"        _ _ Q E K M k d y t 5 <.^.1.' Q T J H A c x z k f f f f d d j d i i y u i d f d z z M H K :.!       0 y y y f f         ",
"        [ _ R I H z f y u 4 L ^.x.| W T P H V c x f f d f d i y i i u u u u 0 0 t y i p i f z V Z ~             y u d f         ",
"        _ E E H M k i y 0 q <.1.,.Q E P Z B c z f d d d u u y t t y p t t 0 0 0 7 0 t t y i k z M H               i d           ",
"        W W E H M f u t 7 g >.:.` E I Z M n k f f d u t t 0 0 0 7 0 0 0 0 0 0 8 0 0 0 t y i f k c H K             d f           ",
"        E W H M k f y i f S >.~ Q T H B c k f i d u t t 0 0 0 0 0 5 8 0 8 0 0 0 0 0 0 t t t i f M P Y                           ",
"          I C M f i i n     ;.| E P V M f f i y u y t t 0 8 8 8 7 8 0 8 8 8 8 0 0 7 0 0 0 y y l N V K                           ",
"          H J z f i m         { I K M n M f s Z n t f i s a y i y y 0 8 5 5 8 0 0 0 0 0 t 0 i n l c H ^                         ",
"            C z d t           o.J c ) #.o.) 4 B 7.p i s s y s t u t 4 8 8 8 5 w 8 8 0 0 0 t y n x n Z U                         ",
"            c z i           +._ A c v. Xr.v.{ # X.v.t 3 y y t t y z z 4 2 8 8 8 k i 4 y y t f n n x S U                         ",
"                f           _ T z ) #X X Xs.XX6.5 d.Q.A 6 4 t t w s d.V.P t t 3 i t.H 3 y t f I j B A C                         ",
"                i           E I j a.%XXXoXXX!.OXb.J V.#Xr.V 8 8 y 4 3 7.oXv.o.P 1 K OX[ 5 y 5 o.V i z c                         ",
"                            T H z U.%X#X#XoXoXXXOX#XV.XX#X#Xb.#.@.+.+.` s.#X XQ.a.t s.$X` 5 8 ) #.0 c z                         ",
"                            J c A &X%X$X$X#X#X%X%Xn.+.T V a.%X$XOXoX$X5Xa.o.#X#X$Xb.5.oXoXT 2 P v.u z z                         ",
"                            H z S 1X%X1X1X%X4X[.Y k c P P A [.$XOX#XOX1X+.7 _ Y.$X5X$X$XoX{.f n E.z j z                         ",
"                            H z U 1X1X1X1XwXn.d P a.|.%X1X&X@X1X1X$X$X1X[.P y j Y o.@./ Y.%X7.l XXc u j                         ",
"                            Z c P 1X1X1X4X@Xz 8.1X2X1X<X1X2X2X1X1X1X1X1X2X&Xa.) Z V B @.OXOXQ.Y XXM i f                         ",
"                            V z A 1X1X1X5X@XP.5X$XOX$XOXOX$X1X1X2X1X1X1XOXOXOX{.s.a.J.2X$XOXoXb.XXz p                           ",
"                              k l |.1X1X1X<X1X$X}.b.a.V.XX#X&X%X1X1X$XOXOXJ.] G ( 3.3.) J.J.].$X{.j y                           ",
"                              k y M.4X1X$XOXoX7.( ( G S F s.OXOX$X$XOXoXV.n 9 8 8 e G w.G / {.$XM.4 8                           ",
"                              k t 8.5XOXOXOXO.9.,X5.7 w 6 , y.XXoXoXXX!.|.'.F 1 3 * O a `.^ C.1X5.l n.1X1X                      ",
"                                t U %XOXb.+.9.,XqXqXN 4 6 > a J.XXXXR.C.qXqX_.1 9 * ; . b `.t.OXr.W.OX<XqX2X                    ",
"                                i 0 U.$Xd. .e.S qX,Xs 4 6 r = `  X}.G.H '.qX .1 9 : , = o w.U.}.}.D.L.XX$X1X                    ",
"                              <X.X+.a.%Xt.m.^ # N s 4 4 6 r % h I. XC.7 h c p p w , , = % 0.1X.XL.Z.Z.T.#X1X                    ",
"                            <X9XoX}.}.oXC.`.m - - 2 4 - : < = r H.XXz.6 w 4 p w w ; = ; o 4.5X{.W.u.h.T.$X$X                    ",
"                            &XOXW.A.T.OXR.3Xm # - - - & @ , , a W. XF.w - 2 - - > $ + + . w.$X XF.u.Z.W.1X                      ",
"                            $X}.h.g.K.OXW.5X..O : & @ @ + % o F XXQ.oXU O - & $ % + + . < wX}.oXW.j.D.OXOX                      ",
"                            OX}.B.=.g.OX X X,X, . X @ + + X + V.S.k.!.E.r X @ $ + . o $ w.1X!.OX}.D.oXXX                        ",
"                              oXZ.B.B.XXoXR.!.d.Q l o . . , N.XXg.Z.h.#XU.b o . X N $.E. XI. XoXK.K.}.                          ",
"                              }.}.D.D.}. XR.f.S.$XG.8.G 4.&X1X.XR.I.}.$X%X1XP.3.7.l.*.G.S.l. X}.                                ",
"                                }.W.G.K.!.l.f.*.f.i.R.1XwX%X%X%X$X$X1X2X1X$X$X&XI.&.%.&.f.S.R.                                  ",
"                                        R.S.i.&.%.i.A. XoX$X#X%X2X1X1X1XoX#XOX!.l.i.*.*.l.R.                                    ",
"                                          l.j.p.f.f.S.!.OX#XXXW.XX%XoXE.!.OXXX!.l.j.k.I.G.                                      ",
"                                              j.S.G.R. XXXoX#XOXQ.T.T.XXOXXX!.R.I.I.S.S.                                        ",
"                                                I.!.XXoXoX XoXOX#XoXoXoXXX!.!.R.R.G.                                            ",
"                                                      !.!. X!.!.!.!.!.R.R.!.}.                                                  ",
"                                                        $XOXQ.}.oX#X<XoX}.}.}.oX                                                ",
"                                                      OX1XOX<X9X$XT.XX9XwX2X1X4X#X                                              ",
"                                                    #X4X$X1X2X2XOXA.}.1X1X2X2X2X9X#X                                            ",
"                                                    1XOX.XoXXX&XXXT.!.OXQ.XX1X<X1X#X                                            ",
"                                                  }.#XQ.}.F.h.G.!.!.R.K.A.k.!.oXoX$X                                            ",
"                                                    R.W.|._.].{..X.X}.{.[._./._.R.R.                                            ",
"                                                      *X-X;X7X0X7X7X7X6X:X=X).(.                                                ",
"                                                      -X7X0X0X0X0X0X7X8X6X:X=X=X                                                ",
"                                                      -X6X0X0X0X0X0X0X0X8X;X-X).                                                ",
"                                                      {.8X7X0X0X0X0X0X7X8X;X:XP.                                                ",
"                                                      !.XX,X7X7X0X7X7X8X;X>X}.G.                                                ",
"                                                      !.oX#X3X,XeX;XeX,X@X X XT.                                                ",
"                                                         XOX$XXXz.{.OXoXOX$XoXK.                                                ",
"                                                        R.XX%X$XL.XX1X<X1XOXoXH.                                                ",
"                                                      Z.R.XX#X#X}.oX1X$X$XOX XB.                                                ",
"                                                      S.R.!. X XK.  1X$XOXXX!.h.                                                ",
"                                                      G.R.R.K.!.T.   XOX}.!.!.G.                                                ",
"                                                      D.G.R.W.W.      F.W.!.!.W.                                                ",
"                                                      G.!. XXXE.      XXOX}.XX!.                                                ",
"                                                          oXW.E.      +XXXQ.{.                                                  "
};
