/* XPM */
static char *b2c85640b6f84bfdf7d56a4a380fe575M3tBjbTBamvrZPz1[] = {
/* columns rows colors chars-per-pixel */
"64 64 237 2 ",
"   c #90EE90",
".  c #0E1517",
"X  c #36241E",
"o  c #252727",
"O  c #37302E",
"+  c #2C3234",
"@  c #363332",
"#  c #530D00",
"$  c #5A1500",
"%  c #561602",
"&  c #651E04",
"*  c #65230B",
"=  c #6C250C",
"-  c #682208",
";  c #72260B",
":  c #6E2C12",
">  c #662C17",
",  c #732D14",
"<  c #792E14",
"1  c #6B311D",
"2  c #7C3116",
"3  c #75321B",
"4  c #7C341B",
"5  c #793319",
"6  c #49342D",
"7  c #5B3427",
"8  c #563C34",
"9  c #4A3027",
"0  c #683525",
"q  c #773B26",
"w  c #673F32",
"e  c #5B2718",
"r  c #6A4437",
"t  c #7B4A38",
"y  c #7E4835",
"u  c #383F42",
"i  c #505152",
"p  c #755346",
"a  c #7A574D",
"s  c #7E655B",
"d  c #B3121C",
"f  c #BA0E1A",
"g  c #82361C",
"h  c #83381E",
"j  c #883519",
"k  c #8B2E19",
"l  c #B81B26",
"z  c #843B23",
"x  c #8B3E23",
"c  c #922A23",
"v  c #B1292D",
"b  c #CB101C",
"n  c #C71A26",
"m  c #D61A26",
"M  c #E81B28",
"N  c #C9232D",
"B  c #D6222E",
"V  c #D82632",
"C  c #CE2D35",
"Z  c #E92935",
"A  c #F42A38",
"S  c #FA333F",
"D  c #E82834",
"F  c #8F4126",
"G  c #86432C",
"H  c #8B432B",
"J  c #914227",
"K  c #94452A",
"L  c #98472C",
"P  c #95482E",
"I  c #9C4A2E",
"U  c #8D4933",
"Y  c #864A36",
"T  c #944C34",
"R  c #9D4D32",
"E  c #934F39",
"W  c #94523C",
"Q  c #9C543C",
"!  c #9E5037",
"~  c #8E503A",
"^  c #A14D31",
"/  c #A94F31",
"(  c #A25135",
")  c #A95032",
"_  c #A3553B",
"`  c #A5583F",
"'  c #AA573A",
"]  c #A14C2F",
"[  c #B33D48",
"{  c #D13E47",
"}  c #FB3A46",
"|  c #EB3742",
" . c #895947",
".. c #9C5A44",
"X. c #985C48",
"o. c #A55B43",
"O. c #A95E45",
"+. c #A55F48",
"@. c #B34A55",
"#. c #9A614E",
"$. c #8D6A5D",
"%. c #886557",
"&. c #946454",
"*. c #976958",
"=. c #A5624C",
"-. c #AA634B",
";. c #AB6047",
":. c #A36652",
">. c #A56955",
",. c #AB6954",
"<. c #A86A56",
"1. c #AA715F",
"2. c #B26D57",
"3. c #8A6E63",
"4. c #8B7266",
"5. c #8B7369",
"6. c #957265",
"7. c #9B7A6C",
"8. c #94766A",
"9. c #9B7E72",
"0. c #957E72",
"q. c #887B77",
"w. c #A87866",
"e. c #A57B75",
"r. c #B56C76",
"t. c #BA5661",
"y. c #C9454E",
"u. c #D94B55",
"i. c #D04752",
"p. c #FB414B",
"a. c #FF4A54",
"s. c #FE535C",
"d. c #EC555F",
"f. c #D25A63",
"g. c #CB5A65",
"h. c #FF5961",
"j. c #EE5E64",
"k. c #D0696D",
"l. c #FE6269",
"z. c #FC6A72",
"x. c #FB787C",
"c. c #E86D73",
"v. c #9C8275",
"b. c #998379",
"n. c #A48375",
"m. c #AC8C7D",
"M. c #A78779",
"N. c #B48A79",
"B. c #AC8573",
"V. c #AE7A83",
"C. c #977E86",
"Z. c #FE7B81",
"A. c #9D8C94",
"S. c #929192",
"D. c #A88D81",
"F. c #AD9184",
"G. c #B39383",
"H. c #B49689",
"J. c #BC9B8C",
"K. c #B99787",
"L. c #A38D95",
"P. c #BA9A94",
"I. c #B58C93",
"U. c #BEA294",
"Y. c #AF9CA5",
"T. c #97A4A9",
"R. c #9BB3BB",
"E. c #95ACB4",
"W. c #A6A8AB",
"Q. c #B7A7A8",
"!. c #A5AFB4",
"~. c #A6B6BC",
"^. c #B9B7BA",
"/. c #B8B0AF",
"(. c #C19E8D",
"). c #CE8F96",
"_. c #FB969A",
"`. c #F6898E",
"'. c #C4A392",
"]. c #CDAA9A",
"[. c #CCA896",
"{. c #D1AC9A",
"}. c #D0AB97",
"|. c #C9A18F",
" X c #CB9BA2",
".X c #D8B3A1",
"XX c #C7B7B8",
"oX c #D3B2B5",
"OX c #EFB2AE",
"+X c #DFC1B5",
"@X c #9FB8C2",
"#X c #ABBCC3",
"$X c #A3BBC5",
"%X c #B8BDC3",
"&X c #E6BDC1",
"*X c #ABC4CC",
"=X c #A8C4CB",
"-X c #B3C5CC",
";X c #BBC5CB",
":X c #BBC9CF",
">X c #B7C5CA",
",X c #BDCAD1",
"<X c #B4CBD3",
"1X c #BDD2D8",
"2X c #AACCD5",
"3X c #C4C5C8",
"4X c #D5C8CA",
"5X c #C3CDD3",
"6X c #CECDD1",
"7X c #C6D1D5",
"8X c #CAD2D6",
"9X c #CCD5DA",
"0X c #C7D7DC",
"qX c #D3DADD",
"wX c #DAD7D9",
"eX c #D4CED3",
"rX c #EACDCF",
"tX c #CBDCE1",
"yX c #D5DEE1",
"uX c #D9DFE2",
"iX c #CDE0E4",
"pX c #DCE2E4",
"aX c #D8E6E9",
"sX c #DFF1F4",
"dX c #E1E4E6",
"fX c #E2E6E8",
"gX c #E5EAEB",
"hX c #EAECED",
"jX c #ECEFF0",
"kX c #E7EEF1",
"lX c #EDF1F2",
"zX c #E8F4F5",
"xX c #F4F4F5",
"cX c #F5FBFC",
"vX c #FCFCFC",
"bX c #F8F6F6",
"nX c #F1EFEF",
/* pixels */
"                                                    i.D l._.;X3X3XXX                                                            ",
"                                                    N D h.Z.3XtXtX0X5X%X                                                        ",
"                                                    B B S A XX0X7X9XtXyX7X                                                      ",
"                                                    g.n f k.yXqXuXfXdXuXpXaX                                                    ",
"                                                  ~.R.C.L.9XdXhXjXhXhXgXaX&Xu.A a.x.                                            ",
"                                                ^.7X,X0XiXpXgXxXxXxXxXgXXXV n } x.OXx.                                          ",
"                                                *X,XqXdXdXdXlXxXxXbXnXtXf.n V S s.x.l.                                          ",
"                                              ^.0X8XdXgXdXgXlXxXbXbXhX>Xu.n N A } a.p.j.                                        ",
"                                              ;X9XwXgXgXfXgXxXxXbXbXhX=Xg.B l B A A A                                           ",
"                                              ,X8XpXhXgXfXgXjXxXxXbXhX:XA.Z n l n m f.                                          ",
"                                            ^.tXiXsXgXgXgXgXjXxXxXxXlXwX~.A.{ v v r.qXXX                                        ",
"                                            :XqXoXrXkXgXgXgXjXlXxXxXxXlXyX:XR.!.>X1XhXwX                                        ",
"                                            %Xi.D x.rXhXhXgXhXjXhXlXxXxXxXhXpX9X7X7XpXhX                                        ",
"                                          $X).b S h.z.hXhXhXgXfXgXhXxXxXxXxXhXqX5X0XpXvX4X                                      ",
"                                        /.2XV.m n M j.jXnXhXgXfXfXhXlXxXbXxXgXqX7X9XpXvXrX                                      ",
"                                      I.#X$XT.t.l { rXxXjXjXgXdXpXgXlXxXbXxXgXyX9XqXuXxXlX                                      ",
"                                    Q.%X-X,X>X-X6XhXzXhXhXhXgXfXpXpXgXxXbXlXgXpXqXqXyXfXvXdX                                    ",
"            y.Z } j.    Q.3X3X6X8X5X0X7X5X5X7X9XpXdXfXuXqXpXfXgXfXpXpXhXxXxXjXpXyXqXqXpXfXxXfXeXoXXXoXXX                        ",
"          { Z Z a._.`.3XyXuXgXkXfXyXqXqXuXyXqX9XqXqXqX5X;X5XqXhXhXdXpXgXkXkXwXaXpXqX9XqXwXpXfXbXxXlXhXkXlXzXjXbXnX              ",
"          C N Z a.Z.Z._.tXqXpXkXhXhXdXgXgXgXfXuXqX9X:X~.~.$X7XhXxXgXfXpX6Xf.p._.dXaXyXpXpXpXdXfXgXhXaXwX X&XxXvXvXbXwX          ",
"        ).M N D } a.p.l.yXuXgXxXxXbXxXhXfXhXhXfXqX8X-XR.E.R.>XfXxXxXhXaXk.b } z._.zXfXhXgXfXdXpXpXpXwXi.M z.OXkXdXuXsX).| c.    ",
"      1XY.D N N A } A c.aXuXhXcXbXrXrXwX0X9XuXpX9X0XT.r 7 S.$XqXlXxXxXtXg.m | A c.zXnXlXhXuX9X5X7X0XI.b Z s.h.%X,X<X Xm } _.x.  ",
"    ^.aXE.i.m l N n m oXaXpXzXrXu.M } Z.oX*X,X5X7X!.> % # r R.1XhXxXvXpXL.N d C oXzXlXgXpX7X<X#X-X-XL.B N M | R.~.=Xk.b } s.p.  ",
"    ;XyX,XS.{ l d N  XsXpXfXwXu.b Z s.`.`.Y.S.!.T.q & * * % S.<XpXxXbXxX7XW.I.XXaXnXhXdX9X1XA., S.:XR.r.v @.W.E.R.=XV.m b M f.  ",
"    ,X9XhX7XE.A.L.;XzXgXgXaXI.m N Z a.l.z.C * 5 5 , 5 : - $ a =X9XhXxXbXbXzXgXzXxXxXhXpX9X;XG ; 3 W.2X=X2X=XS.T.~.1X2Xe.[  XhX  ",
"    0XqXhXcXyX<X2X9XfXxXnXtXV.M l Z } } p.N : 4 4 z 5 < : - > E.:XpXxXxXbXbXxXxXbXxXgXqXiXv.; h 2 q b.W.S.t $ y T.Q.&XpXsXcXbX  ",
"    3XaXjXP.p b.#X>XqXhXxXyXA.A n n V D A v 5 J J x x 5 5 : & b.=X7XfXnXxXbXbXxXxXnXuXiX/.2 g z F h 2 5 ; - , = v Z z.rXxXvXnX  ",
"      Q.P.3 $ # r $X:XuXgXdX@Xr.m d d m l 2 x J K J F x 4 : - r R.#X8XdXlXxXxXxXhXuX9X;XU g x F K T P F F h 4 k m Z h.z.eXcX4X  ",
"      7.K.&.- * # p -X0XwXpX8XE.V.@.@.c - g L L I L K J x 2 < - s $X#X5XyXdXgXfXqX,X<XX.g F J P ! Q o.Q T K 4 j V N Z S 3X;X    ",
"      8.F.G.y = * % p ~.tXaXuX8X2X2XS.* 2 J L I ] I L J F x 5 : & s @X*X>X5X5X5X:X*X6.j F J P ! ..;.-.;.` ! J : v l d k.'.      ",
"      6.M.H.n.3 = > * 0 5.W.3X%XW.$.< j F J L I ] ] ] L K J x 2 , & t S.$X*X*X*X!.&.j F J P Q o.-.,.,.-.o.! P 5 = 4 >.G.        ",
"        4.m.H.7.t 3 q : * > 1 q , < h x x J L I ] ] ] I L K J x g 5 = , t 4.5.$.H j J K I Q +.-.,.,.<.=...! J F *.N.K.          ",
"          5.F.K.D. .3 q y q 5 5 h x x F J K I I ^ ^ ^ ^ I I L K x x x g 2 k k j x J L R Q o.O.,.:.,.>...Q K H e..X(.            ",
"            8.K.P.F.Y 5 G G H H x x J J L I ^ ^ ^ ^ ^ ^ ^ ^ I I L L K J J J J F L K R R o.-.,.:.=.X...Q J ~ M..X(.              ",
"              8.J.[.K. .q H U T K K L L I ^ ^ ^ ^ ^ ^ ^ ^ ^ ^ ] ^ ^ I I I I L L L I ( _ O.-.,.+.X...~ x  .F.[.K.                ",
"                0.J.].J. .G U T T I I I ^ R ^ ^ ^ ^ ^ ^ ^ ^ ^ ^ ^ ^ ^ ^ ^ I ] I ] ^ _ o.-.,.=...E Y z &.F.'.N.                  ",
"                  7.(.}.K.Y G E ! ! R I K K I ( ^ ^ ^ ^ ^ ^ ^ ^ ^ ^ ^ ^ ^ I R ( Q _ o.O.,.-...E G z $.F.J.m.                    ",
"                    7.'.}.n.H E T ! I z 7 6 7 H ^ ^ ^ ^ ^ ^ ^ ^ ^ ^ ^ ( ^ ( ' o.+.,.,.:.,.+...Y z 6.H.G.n.                      ",
"                      e.}.U. .H E R z 6 u + i i K ^ ^ ^ ^ ^ ^ R ^ ^ ] R / ] 8 O @ 8 &.1.,.=...z %.P.K.7.                        ",
"                        G.[.*.F T T 0 + @ o q.!.7 / R ^ ^ ^ ^ ^ ^ ^ ] ( I O o 8 w 6 o  .2.:.X.~ M.[.m.                          ",
"                        m.{.*.F T K 9 o o o 6 i 8 ] ^ ^ ^ ^ R P ^ ^ I ) 6 O ..;.O.;.r 6 ,.>...X.H.{.n.                          ",
"                        M.[.*.x I K > o o o + + r ) ^ ^ I / 0 . 7 / I ) t ..;.` ` o.;.#.,.>.:.&.'.}.n.                          ",
"                        n.P. .h P I z 9 o o o 9 I ) ^ ^ ^ ) X . X ( ( R ` o._ ( _ _ +.;.-.:.:.#.(.{.B.                          ",
"                      *.9.F.G h L I L h 0 7 q I ^ ^ ^ ^ I ) 0 . X ) R ( Q ( R ^ ^ _ ` o.=.:.:.X.N..Xm.                          ",
"                      $.M.7.4 F L I ^ L K L ^ ^ I ^ ^ ^ ^ ^ R q K ) R ( ^ ^ ^ ^ ^ ( _ o.+.=.:.X.w..XG.                          ",
"                      %.v.$.2 F L I ^ ^ I R I ^ ^ ^ ^ ^ ^ ^ R ) ) R ^ ^ ^ ^ ^ ^ R ) ( _ o.=.>.*.<..X[.w.                        ",
"                      $.v.~ g J L ^ ^ ^ ^ ^ ( ^ ^ ^ ^ ^ ^ ^ ^ I I ^ ^ ^ ^ ^ ^ ^ ^ ^ ( _ ` =.<.>.=.}..XN.                        ",
"                    $.0.0.y j J I ^ ^ ^ ^ ^ ^ ^ ^ ^ ^ ^ ^ ( ^ ( ^ ^ ^ ^ ^ ^ ^ ^ ^ ^ ( ( ` -.<.w.=.N..XK.                        ",
"                    6.F.$., F L ] R R ^ ^ ^ ^ ^ ^ ^ ( ( _ ) ( I I ^ ^ ^ ^ ^ ^ ^ ^ ^ ^ ( _ =.,.1.>.w.[.'.w.                      ",
"                    v.H.p k J I ] ] ( ^ ^ ^ ^ ^ ( _ ` ` ` _ R I I I ] ^ ^ ^ ^ ^ ^ ^ ^ ( _ O.2.w.1.>.K.{.B.                      ",
"                    M.M.q g K I ^ ^ ^ ] ^ ^ ( _ _ ` ;.;.o.Q P H J L I ^ ^ ^ ^ ^ ^ ^ ^ ( _ O.,.2.w.>.N.{.m.                      ",
"                    M.8.: g K ^ ^ ^ ^ ] ( ( ` ` ;.;.;.=.Q U z 5 < g J I ^ ^ ^ ^ ( ( ^ ^ ( o.,.1.1.<.w.].G.                      ",
"                  6.m.%.= g K ^ ] ] ( ( _ o.;.-.=.;.#.Q U 4 * $ % % , z P ^ ( ( _ ' _ ( ( _ -.,.1.,.1.'.G.                      ",
"                  8.H.a = h J L ] ( _ ` ;.;.-.-.#...E U 4 - * r 1 % % * < F I _ _ ` o.` _ _ =.>.<.=.*.U.(.                      ",
"                  7.D.t ; 4 F L ^ _ ` o.;.=.=...Q E G 5 3 &.H.H.v.s 0 # $ = h ^ _ o.O.O.o.o.+.=.:...X.U.'.7.                    ",
"                  7.m.y : 4 h J I _ ` ` =.Q W ! F 4 g #.(.U.B.7.3.b.b.a e # & q R o.O.O.+.+.+.X...E #.P.'.e.                    ",
"                  8.M.t = 3 4 F K ! ! Q Q T F g G *.N..XK.>.    &.%.5.v.4.r % & 4 T _ ` o.......W H $.P.|.n.                    ",
"                  5.v.%.= , 5 4 x K P P H h y *.H.'.'.B.              $.5.b.s 7 $ : H T T E W W U H n.J.(.n.                    ",
"                  4.n.M.t = : 2 4 z h 4 4 ~ M.U.'.G.w.                  &.4.b.5.p e - 5 z H G G z  .F.'.G.                      ",
"                  4.G.[.D.a y , : 3 5 Y 7.H.U.J.M.                          $.5.v.4.r > > < 5 4 Y v.'.{.M.                      ",
"                    v.}.{.K.v.8.6.B.m.'..X].m.w.                                4.n.b.3.%.p t  .v.H.].F.                        ",
"                      v.U.'.'.J.{.+XOX.X(.M.                                      $.5.v.v.D.F.G.K.[.F.                          ",
"                        6.v.M.m.G.K.K.B.                                                7.e.m.G.G.B.                            ",
"                                                                                                                                "
};
