/* XPM */
static char *f6ec8d62465b403cf798d195bc06772eBYhbepQOjl8n1xMV[] = {
/* columns rows colors chars-per-pixel */
"64 64 241 2 ",
"   c #90EE90",
".  c #390B00",
"X  c #2A0301",
"o  c #2D1824",
"O  c #491703",
"+  c #511D04",
"@  c #430F00",
"#  c #572810",
"$  c #6A2C09",
"%  c #7A2E04",
"&  c #642E12",
"*  c #6C3B1A",
"=  c #693416",
"-  c #743916",
";  c #753B19",
":  c #783A16",
">  c #75330A",
",  c #532E34",
"<  c #663A27",
"1  c #7B421C",
"2  c #73421E",
"3  c #774924",
"4  c #7E532C",
"5  c #7B5435",
"6  c #573858",
"7  c #503049",
"8  c #5B3963",
"9  c #633E55",
"0  c #5F4151",
"q  c #7B5658",
"w  c #6F4B50",
"e  c #68466A",
"r  c #6B4873",
"t  c #734C78",
"y  c #775478",
"u  c #7C5368",
"i  c #7A666F",
"p  c #812C02",
"a  c #853809",
"s  c #833C13",
"d  c #B2003B",
"f  c #9C0031",
"g  c #8A420E",
"h  c #8D4313",
"j  c #8D4C1C",
"k  c #85461A",
"l  c #934A16",
"z  c #954D19",
"x  c #954A13",
"c  c #8F501F",
"v  c #9A541B",
"b  c #9E591D",
"n  c #9B5416",
"m  c #944B0D",
"M  c #A35C1A",
"N  c #A8631D",
"B  c #854B27",
"V  c #81542C",
"C  c #8B572A",
"Z  c #9C5A21",
"A  c #925D2D",
"S  c #955725",
"D  c #855C32",
"F  c #875A35",
"G  c #945E33",
"H  c #864532",
"J  c #A15D21",
"K  c #96612D",
"L  c #8B653B",
"P  c #8D693E",
"I  c #896339",
"U  c #946333",
"Y  c #9C6B34",
"T  c #9A6D3A",
"R  c #956738",
"E  c #9F723B",
"W  c #A46325",
"Q  c #AA6C2B",
"!  c #A76729",
"~  c #AE712F",
"^  c #A36C33",
"/  c #A96E31",
"(  c #A2693A",
")  c #AD7232",
"_  c #A2733D",
"`  c #A6733A",
"'  c #B27633",
"]  c #B47C3B",
"[  c #B57A38",
"{  c #B5742C",
"}  c #B32357",
"|  c #CF0850",
" . c #E72476",
".. c #DA2168",
"X. c #865B4D",
"o. c #8B6747",
"O. c #946D47",
"+. c #997345",
"@. c #8B6453",
"#. c #9B7856",
"$. c #887059",
"%. c #A27641",
"&. c #A77A47",
"*. c #A67858",
"=. c #AD784A",
"-. c #945966",
";. c #8C6D6D",
":. c #A87C64",
">. c #BB813E",
",. c #B7803E",
"<. c #C2893E",
"1. c #AC824E",
"2. c #B68143",
"3. c #BA8443",
"4. c #BD8A49",
"5. c #B98749",
"6. c #A98759",
"7. c #B88C55",
"8. c #BA955F",
"9. c #9B866B",
"0. c #AA8467",
"q. c #B48972",
"w. c #B59377",
"e. c #B4926E",
"r. c #C28D4A",
"t. c #C38C44",
"y. c #C4914E",
"u. c #CA964E",
"i. c #C49353",
"p. c #C89652",
"a. c #CB9A55",
"s. c #C3965A",
"d. c #CB9D59",
"f. c #C6995B",
"g. c #C9954F",
"h. c #CEA15D",
"j. c #D2A35D",
"k. c #DAAB5D",
"l. c #C59C66",
"z. c #CEA464",
"x. c #C9A46C",
"c. c #D2A562",
"v. c #D5A965",
"b. c #D5AB69",
"n. c #D9AE6B",
"m. c #DBAD65",
"M. c #DBB26D",
"N. c #DDB572",
"B. c #DFBC7B",
"V. c #CBA976",
"C. c #E2B66D",
"Z. c #E2BB75",
"A. c #E3BD7A",
"S. c #E4BB73",
"D. c #E6C17C",
"F. c #E9C37D",
"G. c #EAC174",
"H. c #7C5383",
"J. c #7B5387",
"K. c #6F4B82",
"L. c #0D6CC8",
"P. c #DE3E80",
"I. c #83598B",
"U. c #895C91",
"Y. c #856686",
"T. c #8E6592",
"R. c #93649B",
"E. c #9C6A9E",
"W. c #966498",
"Q. c #927594",
"!. c #9D6CA1",
"~. c #A26CA3",
"^. c #A86EA9",
"/. c #AB74AB",
"(. c #A674A8",
"). c #B47CB4",
"_. c #B57BB6",
"`. c #AE79B3",
"'. c #A96E91",
"]. c #CC6F91",
"[. c #E06095",
"{. c #5CA5BE",
"}. c #5D98AF",
"|. c #3785CA",
" X c #4B8FC5",
".X c #52A7CA",
"XX c #70B4CC",
"oX c #4EAFEA",
"OX c #71CCEC",
"+X c #B09888",
"@X c #B4AB92",
"#X c #BB87BA",
"$X c #AD91AE",
"%X c #8FB0B4",
"&X c #B9A9BA",
"*X c #B9B3BE",
"=X c #9D8A99",
"-X c #DABA84",
";X c #CCB08D",
":X c #D2B2A6",
">X c #C39AA2",
",X c #B0C1BB",
"<X c #E9C682",
"1X c #EDCB85",
"2X c #EECD8A",
"3X c #E5C482",
"4X c #F1CF89",
"5X c #F3D38C",
"6X c #FAD78A",
"7X c #EED299",
"8X c #F3D593",
"9X c #F6DA9A",
"0X c #F9DB97",
"qX c #EECF91",
"wX c #FFE29A",
"eX c #DAC5AF",
"rX c #EED7A9",
"tX c #F5DDA6",
"yX c #EBD9B7",
"uX c #FDE7A5",
"iX c #F5E3B7",
"pX c #FFF0AA",
"aX c #DDC08E",
"sX c #A4A7CA",
"dX c #C58EC3",
"fX c #C996C7",
"gX c #CE9BCF",
"hX c #D6A6D4",
"jX c #D2A9D1",
"kX c #E6ABC2",
"lX c #8CC2D1",
"zX c #AECACC",
"xX c #ACDAE8",
"cX c #A6E8FF",
"vX c #E7D9C9",
"bX c #F3E6C8",
"nX c #F1E8D7",
"mX c #E9DCEC",
"MX c #EDE9EB",
"NX c #F5F8FB",
"BX c #F0EEEE",
/* pixels */
"                                                                                                                                ",
"                            mX                                                                                                  ",
"                          MX .kX:X                                                                                              ",
"                             .d f |                               [.                                                            ",
"                            P.P.                                  | f } P.                                                      ",
"                                                                   .].].                                                        ",
"                                                                                                                                ",
"                          fX                                                                                                    ",
"                          fXgX~.                                gX                                    [. .} }                   ",
"                        $XfX#X^.Q.                            #XgXdX                                  [.| } ].P.                ",
"                      Q./.#X^./.T.$X                        &X#XgXdX$X                                                          ",
"                      I.(.(./._.~.r                         $XfXfXdX(.                                hX                        ",
"                    r H.E.R.!.~.y 8 Y.                    =X(.#X#X~.~.T.                            fXfX                        ",
"                  =XH.R.T.R.R.J.r e 8 &X                  y ~.^.(./.(.I.                          *XdXgX$X                      ",
"                  7 6 t u q q q 0 , 7 6                 y y E.E.W.(.E.I.Y.                        R.dXdX#X&X                    ",
"                y q V.V.z.t.{ W M x s ,               $XI.T.R.E.~.E.W.T.r Q.                    Y.R.`.^.~.T.                    ",
"                  7XwXD.n.y.Q N b z p q.              7 r J.J.I.R.R.I.8 8 8                   Y.t /.~./.`.U.&X                  ",
"                  iX1XA.v.s.w.%.b z % q.            Y.0 w q X.@.$.@.@.X.q w ;.              &X6 t T.W.~.!.U.I.                  ",
"                  iX5XA.h.,XxXlXS n % q.          w.U _ _ ` Y Y Y Y Y Y U ^ A e.            8 8 r r H.U.J.r 8 $X                ",
"                  iX4XD.z.lXXXXXR x p q.          #.- ; = & & & & & & = = * = :.          i , < 3 C G *.:.$.w 6                 ",
"                  bX5XD.j..XXX|.F x a :.          9.& 3 C *.6.6.1.&._ A k : $ +X          =X> g M W { d.C.F.wX9.*X              ",
"                  bX1XZ.d.9.#.o.S l p :.            =.i.4XpXpXwX4XZ.j.r.' M G               - h Z J 7.a.b.D.5X                  ",
"                    1XC.j.t.' N z l p :.            =.z.8X9XuX8X3XN.c.t./ z (               : x x +XxX%Xc.3X5X                  ",
"                q.#.a.' a.] Q J z J v : :           8.M.1X9XuX0X2XZ.c.y.) n %.              : h M %XXXOXx.D.5X                  ",
"                &.g Q K ! W W Z J J v z l           l.C.1X9XuXuX;.q.m.y.] b _               - s M .XXX X8.F.5X                  ",
"                  j c c S z S k j s B % *.          V.n.8X9XpX;.7 6 8.h.,.n =.              - s v o.#.$.z.Z.2X                  ",
"                  :.> k : : : : s : s %           NX;Xm.qXpX+X0 k.O.0 f.[ n *.              - s l M Q t.j.N.2X                  ",
"                  yXp.y.5.[ ! W v v z a           NX;Xm.0X;X0 z.G.G.w w <.M *.          0.$ s W z v ! ] a.Q f.o.+X              ",
"                  vXM.D.N.j.t.Q J v n a :X        NX;Xj.-Xe z.6X5X6X<X, F M :.          eXp v v Z J ! Q ) Q ) m ;X              ",
"                    5X<XN.j.g.] J z n a ;X  BXBXBXNX;Xs.y #.G.B.@X;XA.z., < l.NXMXMXMXBXNXo.% s s k k h h j a (                 ",
"                    8X<XN.c.y.3.! x v p +XNXhXhXhXgXdXy q k.@XcXxXcX%Xk.O., /.fXhXhXgXjXNXq.% k h l S S S ( !                   ",
"                    8X1XM.j.y.] ~ J z a +XmXfXgXfXdX#X;.>.u.%XxX%XXXXXs.u.w W._.#XfXgXdXmX:.p z v Q [ r.M.<X0X                  ",
"                    tX1XZ.c.y.,.~ W M a :.gX#XdX_./._.(.,.>.zXOX.XOXlX7.3.;.R./._.#X).).dXo.a l l W ] d.N.F.8X                  ",
"                    tX1XD.n.p.,.~ J n h W._.^.~././.^.t N >.XX.X}.lX.X1.' -.J.~./.^.^.^._.-.a x v / g.j.M.F.9X                  ",
"                    uX1XA.n.d.2.Q W m -./.^.~.!.~.~.;.K.V N  XoX%X|.L.Y v e t J.T.W.(./.).^.H m J [ r.d.n.F.tX                  ",
"                    iXF.n.n.h.4.~ N X.K.I.U.U.T.I.t e 8 5 C $.9.*.$.i U F u e t y H.J.U.I.H.t B ! [ r.m.D.4XtX                  ",
"                    iX1XB.v.h.4.{ G e w q @.@.O.*.#.%.&.1.1.5.3.5.5.5.1.1.1.1.&.*.+.o.o.X.q w w Q [ 5.5 x.5XuX                  ",
"                    iX4XD.n.h.4.( U R T _ _ E +._ ` &.%.%.+.%.+.+._ +.E _ _ +.E E _ _ E T Y G F A ] O.X 1.6XiX                  ",
"                    bX1XB.n.h.y.Y U U U U U U U K A K U K K K K K K A A A A A A A A A K U A G A S ] &.# 1.G.iX                  ",
"                    bX1XD.n.h.u.] k 1 B 1 1 1 1 ; 1 1 * - - * - - * - - * - ; - 2 ; - ; ; ; 3 s W 3.d.m.N.Z.iX                  ",
"                    nX4XD.M.a.>.] ; & = - : - = 2 = 1 A K K Y ( ` _ ` ` _ C ; V = 1 B 1 ; - = = ! 3.d.b.A.4XbX                  ",
"                    nX4XD.m.x.@X7.Z j S K / ^ ^ c 3 ,.u.g.j.M.N.S.Z.Z.m.k.a.E & K r.u.r.2.] ^ c ! 3.a.v.Z.F.bX                  ",
"                      4XD.z.zXxXXXQ J ! ) ) =.[ $ 2 a.i.n.B.Z.D.A.A.A.A.N.C.+.. Q j.g.y.t.t.=.W Q 4.f.b.A.1X                    ",
"                      qXD.b.lX.XXX%.M / ) [ >.>.1 2 j.N.D.D.F.F.<X<X<XD.D.1X1.@ ' j.a.p.r.t.<.J ~ 4.a.c.Z.1X                    ",
"                      8XD.z. XXX|.P M ^ ) ] 2.3.1 2 F.D.D.1X1X2X1X1X1X1X3X4X6.@ =.k.a.a.i.y.] v ~ 4.p.z.B.1X                    ",
"                      7XD.b.e.6.#.Q b / ] 2.5.4.1 2 F.F.D.1X2X2X4XqX4X5X1X6X6.O 2.v.j.a.a.p.[ b ~ 4.a.v.B.1X                    ",
"                      7XG.M.j.u.>.Q v / ,.2.3.y.c 2 3X1X<X<X5X9X9X9X8X8X2X0X6.O 4.M.j.j.a.a.' v ) 3.a.b.Z.2X                    ",
"                      rXA.n.h.y.>.Q b / ,.2.4.i.D * D.2X8X9X9X0X9X9X9X9X8X9X6.+ s.A.c.c.a.a.Q M ) 4.f.v.Z.2X                    ",
"                      rXS.N.h.i.>.Q M Q 2.2.4.n.U & 3X8X8X5XF.b.v.N.<X5X9XuX6.+ i.<Xb.d.a.h.J M ~ 3.i.b.N.8X                    ",
"                      iXS.n.z.4.=.J v ! 3.3.y.S.^ # -X0XF.h.P I I I &.b.<XuX6.+ s.1Xn.d.h.d.J J Q ] a.b.B.7X                    ",
"                        M.n.z.y.] W Z W 3.3.s.D.` # B.5X7.4 4 o.P P I P z.0X6.O s.<XZ.v.j.a.J J ! 2.a.v.S.7X                    ",
"                        S.M.h.i.] W v J 3.5.v.D.&.+ V.C.V 4 P P P P P I E F.6.+ s.1XZ.n.j.g.M J Q ,.f.b.N.rX                    ",
"                        S.M.h.4.[ W M J =.r.N.F.=.+ 8.a.3 5 P P o.P P P L m.*.+ l.1XZ.n.j.t.z J ! [ a.b.M.rX                    ",
"                        D.M.h.3.~ ! v v ] i.N.F.5.O 6.5.3 V I P P I P P L j.O.O s.1XZ.n.k.=.s J Q ' p.b.N.iX                    ",
"                        D.n.z.4.Q ! M z [ a.N.A.7.@ 1.2.3 4 P O.+.P o.P P j.O.O l.2XZ.n.v.[ a J ! ' t.b.N.yX                    ",
"                        D.M.a.3.' W Z l ' d.n.F.4.@ O.1.2 4 I R P +.O.I C a.o.@ s.2XN.n.v./ s J Q ' 4.h.M.bX                    ",
"                        A.m.p.3.~ W M h / j.n.F.s.. I 1.* 3 4 D 5 I 4 4 4 u.I . s.1XC.b.v.! s z Q ' r.a.m.                      ",
"                        -Xj.p.3./ ! z h ! j.b.A.s.. 4 %.= 2 2 3 4 4 4 3 3 y.5 . s.3Xn.b.c.S a s b [ t.a.m.                      ",
"                        3Xj.p.3.' M z h Z d.c.Z.s.. 3 E # = = * 2 2 2 2 2 4.5 . r.3Xc.c.z.S a l v Q 4.h.M.                      ",
"                        -Xj.a.3.! M v h S d.c.Z.f.. 2 ` 2 3 V D 4 D 4 4 2 5.5 X 5.<Xn.c.a.s p h n J ' t.j.                      ",
"                        -Xr.[ W n m m z ( t.d.N.z.O # %.D U R P P P P L 4 ,.3 X 1.S.v.p.g.q.+.Z Z / =.x.eX                      ",
"                              :X;X:X      V.c.c.i.. X A U Y T R T Y Y R U K O X =.A.-X-XeX                                      ",
"                                              nXyX+X;.6.#.O.O.O.+.O.6.#.0.w.                                                    ",
"                                                              BXBX                                                              "
};

