/* XPM */
static char *c9d032c49f6c43b1a5505823229d42c1R6I76G2J598kdBZa[] = {
/* columns rows colors chars-per-pixel */
"64 64 247 2 ",
"   c #2A0301",
".  c #390B00",
"X  c #2D1824",
"o  c #430F00",
"O  c #491703",
"+  c #511D04",
"@  c #572810",
"#  c #6E2F0A",
"$  c #7A2E04",
"%  c #642E12",
"&  c #693416",
"*  c #6C3B1A",
"=  c #743916",
"-  c #783A16",
";  c #753B19",
":  c #532E34",
">  c #663A27",
",  c #73421E",
"<  c #7B421C",
"1  c #774924",
"2  c #7E532C",
"3  c #7B5435",
"4  c #503049",
"5  c #573858",
"6  c #633E55",
"7  c #5B3963",
"8  c #5F4151",
"9  c #6F4B50",
"0  c #7B5658",
"q  c #68466A",
"w  c #7C5368",
"e  c #6B4873",
"r  c #734C78",
"t  c #775478",
"y  c #7A666F",
"u  c #812C02",
"i  c #853809",
"p  c #833C13",
"a  c #9C0031",
"s  c #B2003B",
"d  c #8A420E",
"f  c #8D4313",
"g  c #88481B",
"h  c #944A15",
"j  c #924D15",
"k  c #954D19",
"l  c #9B5416",
"z  c #9A541B",
"x  c #9E591D",
"c  c #A35C1A",
"v  c #A8631D",
"b  c #854B27",
"n  c #81542C",
"m  c #8B572A",
"M  c #955725",
"N  c #9C5A21",
"B  c #925D2D",
"V  c #864532",
"C  c #855C32",
"Z  c #875A35",
"A  c #945E33",
"S  c #A15D21",
"D  c #96612D",
"F  c #896339",
"G  c #8B653B",
"H  c #8D693E",
"J  c #946333",
"K  c #9C6B34",
"L  c #956738",
"P  c #9A6D3A",
"I  c #9F723B",
"U  c #A46325",
"Y  c #A76729",
"T  c #AA6C2B",
"R  c #AE712F",
"E  c #B5742C",
"W  c #A56C34",
"Q  c #AD7232",
"!  c #A6733A",
"~  c #A2733D",
"^  c #B27633",
"/  c #B57A38",
"(  c #B47C3B",
")  c #B32357",
"_  c #DB1B65",
"`  c #865B4D",
"'  c #8B6747",
"]  c #946D47",
"[  c #997345",
"{  c #8B6453",
"}  c #887059",
"|  c #9B7856",
" . c #A67946",
".. c #AD784A",
"X. c #A67858",
"o. c #945966",
"O. c #8C6D6D",
"+. c #A87C64",
"@. c #B7803E",
"#. c #BB813E",
"$. c #C2893E",
"%. c #AC824E",
"&. c #B68143",
"*. c #BA8443",
"=. c #B98749",
"-. c #BD8A49",
";. c #A98759",
":. c #B88C55",
">. c #BA955F",
",. c #9B866B",
"<. c #AA8467",
"1. c #B48972",
"2. c #B49270",
"3. c #C38C44",
"4. c #C28D4A",
"5. c #C4914E",
"6. c #C9954F",
"7. c #CA964E",
"8. c #C49353",
"9. c #C89652",
"0. c #CB9A55",
"q. c #C5975B",
"w. c #CB9D59",
"e. c #CEA15D",
"r. c #D2A35D",
"t. c #DAAB5D",
"y. c #C59C66",
"u. c #CEA464",
"i. c #C9A46C",
"p. c #D2A562",
"a. c #D5A965",
"s. c #DBAD65",
"d. c #D5AB69",
"f. c #D9AE6B",
"g. c #DBB26D",
"h. c #CBA976",
"j. c #DDB572",
"k. c #DFBC7B",
"l. c #E2B66D",
"z. c #E4BB73",
"x. c #E2BB75",
"c. c #E3BD7A",
"v. c #EAC174",
"b. c #E6C17C",
"n. c #E9C37D",
"m. c #6F4B82",
"M. c #7C5383",
"N. c #7B5387",
"B. c #0D6CC8",
"V. c #DE3E80",
"C. c #83598B",
"Z. c #895C91",
"A. c #856686",
"S. c #8E6592",
"D. c #93649B",
"F. c #966498",
"G. c #9C6A9E",
"H. c #927594",
"J. c #A96E91",
"K. c #9D6CA1",
"L. c #A26CA3",
"P. c #A86EA9",
"I. c #A674A8",
"U. c #AB74AB",
"Y. c #AE79B3",
"T. c #B47CB5",
"R. c #CC6F91",
"E. c #E06095",
"W. c #5D98AF",
"Q. c #5CA5BE",
"!. c #3785CA",
"~. c #4B8FC5",
"^. c #52A7CA",
"/. c #70B4CC",
"(. c #4EAFEA",
"). c #71CCEC",
"_. c #9D8C9A",
"`. c #B09889",
"'. c #B4AB92",
"]. c #AD92AE",
"[. c #BA87BA",
"{. c #8FB0B4",
"}. c #B8AFB4",
"|. c #B8A9BA",
" X c #C29E89",
".X c #CCAF8E",
"XX c #DABA84",
"oX c #D390B3",
"OX c #EB9BBC",
"+X c #D0B5AD",
"@X c #B0C1BB",
"#X c #DDC08E",
"$X c #E5C482",
"%X c #E9C682",
"&X c #EDCB85",
"*X c #EECD8A",
"=X c #F1CF89",
"-X c #F3D38C",
";X c #FAD78A",
":X c #EECF91",
">X c #EED299",
",X c #F3D593",
"<X c #F8DB98",
"1X c #FFE29A",
"2X c #DAC5B3",
"3X c #EED7A9",
"4X c #F5DDA6",
"5X c #EBD9B7",
"6X c #FDE7A5",
"7X c #FFF0AA",
"8X c #F5E3B8",
"9X c #C58EC3",
"0X c #C995C7",
"qX c #CE9BCF",
"wX c #CFB2CD",
"eX c #D5A6D3",
"rX c #EBB2C8",
"tX c #8CC2D1",
"yX c #AECACC",
"uX c #ACDAE8",
"iX c #A6E8FF",
"pX c #D5CAC8",
"aX c #DACBDA",
"sX c #DBD6DB",
"dX c #E9CECD",
"fX c #E5D8D8",
"gX c #F3E5C9",
"hX c #EDE5D9",
"jX c #F7EDD4",
"kX c #F3EBD8",
"lX c #DFD9E0",
"zX c #E6DEE2",
"xX c #EEDCEB",
"cX c #E9E5E5",
"vX c #EDECEC",
"bX c #F2EDE2",
"nX c #F1EEEE",
"mX c #F6F2E5",
"MX c #F2F1ED",
"NX c #F1EFF0",
"BX c #EDF4F2",
"VX c #F2F2F2",
"CX c #F5F9F6",
"ZX c #F8FAF7",
"AX c #F3F5F9",
"SX c #F5FBFB",
"DX c #FFFFFF",
/* pixels */
"DXDXDXDXDXDXDXVXVXVXVXVXVXVXVXVXBXMXVXVXVXMXVXVXVXVXVXVXVXVXVXBXVXVXVXVXMXVXVXVXVXVXVXVXVXVXVXVXVXVXVXVXVXVXVXVXVXZXDXDXDXDXDXDX",
"DXDXDXDXDXDXDXVXVXVXVXVXVXcXfXDXSXBXVXVXVXVXVXVXVXVXVXVXVXVXVXVXVXnXVXVXVXVXVXVXVXVXVXVXVXVXVXVXVXVXVXVXMXAXVXVXVXVXDXDXDXDXDXDX",
"DXDXDXDXDXDXDXVXVXVXVXVXSXcXV.rXoXfXSXMXVXVXVXVXVXVXVXVXVXVXVXVXVXSXSXVXDXZXVXVXVXVXVXVXVXVXVXVXVXVXVXVXVXVXVXVXVXVXDXDXDXDXDXDX",
"DXDXDXDXDXDXDXVXVXVXVXVXZXxX_ s a _ rXAXVXVXVXVXVXVXVXVXMXVXVXCXdXE.wXDXrXfXVXVXVXVXVXVXVXVXVXVXVXVXVXVXVXVXVXVXBXVXDXDXDXDXDXDX",
"DXDXDXDXDXDXDXVXVXVXVXVXAXcXV.V.fXrXOXVXVXVXVXVXVXVXVXVXVXVXVXSXOX_ a ) _ cXAXVXVXVXVXVXVXVXVXVXVXVXVXVXVXVXVXVXVXVXDXDXDXDXDXDX",
"DXDXDXDXDXDXDXVXVXVXVXNXZXaXaXSXSXSXSXVXVXVXVXVXVXVXVXVXVXVXMXSXoX_ R.R.vXSXVXVXVXVXVXVXVXVXVXVXVXVXVXnXVXVXVXVXVXVXDXDXDXDXDXDX",
"DXDXDXDXDXDXDXVXVXVXVXVXBXwXqXvXVXNXVXVXVXVXVXVXVXVXVXVXVXVXVXSXoXdXDXDXAXVXVXVXVXVXVXVXVXVXVXVXVXVXVXvXZXZXVXVXVXVXDXDXDXDXDXDX",
"DXDXDXDXDXDXDXVXVXVXVXZXaX[.9XwXZXVXVXVXVXVXVXVXVXVXVXVXVXVXVXVXwXNXVXNXVXVXVXVXVXVXVXVXVXVXVXVXVXVXZXoXrXSXVXSXVXVXDXDXDXDXDXDX",
"DXDXDXDXDXDXDXVXVXVXCXvX].9XqXL.pXDXBXVXVXVXVXVXVXVXVXVXBXNXSXaXqXeXZXVXVXVXVXVXVXVXVXVXVXVXVXVXVXVXDXE._ ) ) rXSXMXDXDXDXDXDXDX",
"DXDXDXDXDXDXDXVXVXNXSXwX].0X[.P.H.BXVXVXVXVXVXVXVXVXVXVXNXAXvX[.qX9XzXVXMXVXVXVXVXVXVXVXVXVXVXVXVXVXSXR._ ) R.V.xXAXDXDXDXDXDXDX",
"DXDXDXDXDXDXDXVXBXVXcXH.I.[.P.U.S.].DXNXVXVXVXVXVXVXVXVXNXZX|.[.qX[.].AXVXVXVXVXVXMXVXVXVXVXVXVXVXVXVXwXrXnXDXAXnXVXDXDXDXDXDXDX",
"DXDXDXDXDXDXDXVXNXDX].M.I.P.U.[.L.e aXZXNXVXVXVXVXVXVXNXSXsX].0X0X0XH.wXDXnXVXVXVXAXVXVXVXVXVXVXVXZXaXeXVXVXNXVXMXMXDXDXDXDXDXDX",
"DXDXDXDXDXDXDXNXVXzXe M.G.D.G.L.t 7 A.ZXVXVXVXVXVXVXVXVXZX_.I.[.[.P.L.H.cXVXVXVXVXVXVXVXVXVXVXVXVXcX9X9XwXAXVXVXVXVXDXDXDXDXDXDX",
"DXDXDXDXDXDXDXBXDX_.C.D.D.D.D.N.e e 5 |.DXvXVXVXVXVXNXDX|.t L.P.I.U.I.C.|.DXBXVXVXVXVXVXVXVXVXVXZX|.9XqX].cXVXVXVXVXDXDXDXDXDXDX",
"DXDXDXDXDXDXDXSXsX4 5 e w 0 0 0 6 : 4 5 aXZXNXVXVXBXVXcXt t G.G.F.I.G.Z.C.sXZXMXVXVXVXVXVXVXBXZXwXF.[.9X[.|.ZXNXVXVXDXDXDXDXDXDX",
"DXDXDXDXDXDXDXSXt 0 h.h.u.3.E U c p p > @XZXnXVXVXBXDX].C.S.F.G.L.G.F.Z.q A.DXMXVXVXVXVXVXVXVXvXM.G.Y.P.I.S.lXZXVXVXDXDXDXDXDXDX",
"DXDXDXDXDXDXDXVX_.>X1Xv.d.7.E v S j u 1.DXNXNXVXNXZXaX4 e N.N.N.D.G.N.7 7 5 wXDXNXVXVXVXVXVXZXA.t I.L.I.U.Z.|.ZXBXVXDXDXDXDXDXDX",
"DXDXDXDXDXDXDXVXDX8X&Xb.a.>.2...l z $ 1.SXNXVXVXVXSXA.8 9 0 { { { } { ` 0 9 y vXVXVXVXVXNXDX|.5 r S.G.L.L.Z.C.fXZXVXDXDXDXDXDXDX",
"DXDXDXDXDXDXDXVXBX8X=Xb.e.@XuX/.N k u 1.DXnXVXVXVX2.J ~ I W K K K K P K K W A 2.SXNXAXNXZXcX7 7 e q M.C.N.e 7 _.DXVXDXDXDXDXDXDX",
"DXDXDXDXDXDXDXMXAX8X=Xb.u.tX/./.L j u 1.DXNXVXVXZX| = ; * % % % % % % % & , # +.DXNXNXNXSXy : > 3 m J X.+.} w 5 sXVXDXDXDXDXDXDX",
"DXDXDXDXDXDXDXVXAXgX=Xn.p.^./.!.Z z i +.DXvXVXNXDX,.% 1 n X.:.;.%. .~ B f - % `.DXvXAXVXAX_.# d z S / 0.l.n.1X,.|.DXDXDXDXDXDXDX",
"DXDXDXDXDXDXDXMXVXgX&Xx.w.,.| ' N p u +.DXBXVXVXVXcX..8.=X7X7X1X-Xz.r.3./ l A MXVXVXVXMXAXhX= f c S :.y.s.n.-XjXSXMXDXDXDXDXDXDX",
"DXDXDXDXDXDXDXVXDXmX%Xj.r.3.E v k h u +.BXvXVXVXVXNX%.u.-X<X1X,X%Xj.p.3.R k W VXVXVXVXVXAXfX- h h '.uX{.p.$X-XjXAXVXDXDXDXDXDXDX",
"DXDXDXDXDXDXDXbX1.| 0./ 9.( T N k S k = ; .XDXvXVXnX>.g.*X<X6X<X*Xx.e.8.E l ] VXVXVXVXBXAXfX- h c {././.i.$X-XkXAXVXDXDXDXDXDXDX",
"DXDXDXDXDXDXDXVX .d T D T Y U U S M z h f fXSXMXVXBXy.g.&X<X6X<Xt 2.s.-.@.c I CXVXVXVXVXZXfX= p c ^./.~.y.n.-XkXAXMXDXDXDXDXDXDX",
"DXDXDXDXDXDXDXDXpXj k k g k M g k g g $ +.SXBXVXVXAXh.f.,X,X7XH.6 8 y.9.@.l  .SXVXVXVXNXZXcX= p z ' | } w.x.=XbXVXAXDXDXDXDXDXDX",
"DXDXDXDXDXDXDXnXSX+.- < - - - - - p p $ +XDXnXVXVXAXXXa.:X7X`.8 t.' 8 0./ h X.SXNXAXNXNXcX+X= p h c R $.u.g.*XMXSXMXDXDXDXDXDXDX",
"DXDXDXDXDXDXDXMXSX5X7.5.=./ Y U N k k i +XDXNXVXMXVX.Xa.1X.X8 u.v.v.9 9 $.c X.SXNXVXNXSX<.# < S k z Y ( 0.T q.' `.ZXDXDXDXDXDXDX",
"DXDXDXDXDXDXDXVXAXdXg.b.j.r.4.T S z h i +XZXVXVXMXSX Xt.#Xq y.;X-X,Xn.: ` c X.DXVXAXVXDX+Xu k z N S Y T R T ^ h .XDXDXDXDXDXDXDX",
"DXDXDXDXDXDXDXVXCXkX,X%Xg.r.7.( S k l i  XDXnXNXNXSX.Xy.y | v.k.'..Xn.w.: ; 1.AXcXvXcXNXDX' $ p p g f g g g i W VXVXDXDXDXDXDXDX",
"DXDXDXDXDXDXDXVXBXmX,X$Xj.r.5.&.T h k i  XSXeXeXeXqX9Xm.0 t.'.iXuXiX{.l. .X U.qXqXeXqXwXDX<.$ f f g M M N K K +XSXVXDXDXDXDXDXDX",
"DXDXDXDXDXDXDXVXAXmX,X%Xj.r.7.( R S k i  XxX9XqX0XoXY.O.#.7.{.uX{././.q.0.9 Z.oX[.qXqX9XxX+.i k z Y / 4.g.%X,XmXVXVXDXDXDXDXDXDX",
"DXDXDXDXDXDXDXVXVXMX4X*Xb.r.5.@.E U c i +.qX[.9XT.U.[.J.@.#.yX).Q.)./.>.3.o.K.Y.T.[.T.T.9XA i h h U &.w.j.n.,XmXAXVXDXDXDXDXDXDX",
"DXDXDXDXDXDXDXVXVXMX4X*Xx.d.7.@.T S l d F.T.P.L.U.Y.I.t Y #./.^.W.tXQ.%./ w M.L.U.P.P.P.T.o.i k z T 4.r.g.n.>XMXAXMXDXDXDXDXDXDX",
"DXDXDXDXDXDXDXVXVXAX6X%Xx.f.e.@.E U h o.U.P.L.K.K.K.M.r n v ~.(.{.!.B.P x q r M.S.G.L.Y.T.I.V f S / 4.e.g.%X4XBXVXMXDXDXDXDXDXDX",
"DXDXDXDXDXDXDXVXMXAX8X%Xf.f.u.*.T U ` m.C.Z.Z.S.C.r q q 1 M } ,.| } y K n w q r t M.N.C.Z.N.r b Y / 4.s.v.&X4XVXVXVXDXDXDXDXDXDX",
"DXDXDXDXDXDXDXVXVXAX8X&Xk.a.e.-.E Z q 9 0 { { ] | [ X. .%.%.=.&.=.-.=.%.%.%.%.[  .| ] ' ` 0 9 9 T / =.3 i.-X6XBXVXVXDXDXDXDXDXDX",
"DXDXDXDXDXDXDXVXMXAX8X&Xk.f.e.5.W A P P I ! [ ~ ~  .~  .~ I [  .[ ~ [ I  .I ~  .[ I I I P K J Z B ( H   %.;X5XAXVXVXDXDXDXDXDXDX",
"DXDXDXDXDXDXDXVXVXAXgX=Xb.f.e.5.K B L J J J D J J J B J J D D J D D B B B D B B B m B B J B B Z M #. .@ %.v.8XBXVXVXDXDXDXDXDXDX",
"DXDXDXDXDXDXDXBXVXCXgX&Xk.f.e.5.( b g 1 < < < < ; , < = = = & = = & = = & ; ; * < ; = = ; < g - U &.w.g.j.z.8XSXVXVXDXDXDXDXDXDX",
"DXDXDXDXDXDXDXVXVXAXkX&Xb.g.e.*./ ; % & & ; & ; < & , D D D K W ! ~ ! ! ~ m ; n & < b < - = % & U #.w.d.c.&XgXAXMXVXDXDXDXDXDXDX",
"DXDXDXDXDXDXDXVXnXAXkX&Xb.f.>.'.:.N M M S Q W W g 1 @.7.7.r.g.j.v.x.z.g.t.0.I % D 4.7.5.*.( W M T =.w.a.x.%XgXAXVXVXDXDXDXDXDXDX",
"DXDXDXDXDXDXDXVXVXAXbX-Xb.u.yXuX/.Y S Y Q Q ../ # , e.-.f.k.k.b.x.b.x.k.j.l.[ . T r.5.5.4.3...S T -.w.a.x.&XgXAXVXVXDXDXDXDXDXDX",
"DXDXDXDXDXDXDXVXVXBXmX:Xb.u.tX/./. .c Y Q / #.( < , r.x.b.b.n.n.%X%X$Xb.b.%X%.o ^ r.0.9.7.3./ S T -.q.a.x.&XkXAXMXVXDXDXDXDXDXDX",
"DXDXDXDXDXDXDXVXVXVXMX:Xb.u.Q./.!.H c T ! ( &.*.< , v.b.b.&X&X&X*X&X*X%X$X-X;.O ..t.0.0.5.5.( x R -.9.u.x.%XbXAXVXVXDXDXDXDXDXDX",
"DXDXDXDXDXDXDXVXVXVXMX>Xb.u.2.<.[ W x W / &.*.-.< , n.n.$X&X*X*X:X*X*X*X%X;X;.O &.a.r.0.9.0./ N Q -.0.a.k.*XbXVXVXVXDXDXDXDXDXDX",
"DXDXDXDXDXDXDXVXVXVXCX>Xx.g.r.3.#.R l Q @.&.-.5.m , $X&X&Xb.,X<X<X<X<X-X*X<X;.O :.l.r.e.0.0.^ x Q -.9.d.x.&XMXVXVXVXDXDXDXDXDXDX",
"DXDXDXDXDXDXDXVXVXVXBX3Xx.f.u.5.*.T x W @.&.-.8.C & $X*X,X<X<X<X<X<X<X4X,X<X;.+ 8.c.p.r.0.0.T c R =.w.d.x.*XMXVXVXVXDXDXDXDXDXDX",
"DXDXDXDXDXDXDXVXVXVXAX3Xc.j.e.5.#.T c Y &.*.-.a.K % $X,X<X,Xn.d.a.j.&X-X<X1X;.+ 8.%Xd.w.0.w.S z R *.9.d.j.>XVXVXVXVXDXDXDXDXDXDX",
"DXDXDXDXDXDXDXVXVXVXVX8Xz.d.e.8...S z Y =.*.8.x.K @ XX<Xb.q.H G F H [ a.&X6X<.+ q.&Xf.w.r.w.S S T / 9.d.x.>XVXVXVXVXDXDXDXDXDXDX",
"DXDXDXDXDXDXDXVXVXVXAX5Xg.d.u.5./ U N U &.=.9.b.! @ k.-X-.2 3 H H H F H u.<X;.O q.%Xx.a.r.0.S S T &.w.d.j.>XAXVXVXVXDXDXDXDXDXDX",
"DXDXDXDXDXDXDXVXVXMXAXgXc.g.e.8.( U x S *.*.a.n. .+ h.l.2 2 H H H H H F I n.;.+ q.&Xx.f.r.7.c S Y &.q.d.g.3XAXVXVXVXDXDXDXDXDXDX",
"DXDXDXDXDXDXDXVXVXVXAXgXz.g.u.-.^ U N N ..4.l.n...+ y.>.< C H H H H H F F s.| + q.&Xx.f.r.4.h S Y / w.a.j.3XAXVXVXVXDXDXDXDXDXDX",
"DXDXDXDXDXDXDXVXVXVXAXhXv.g.e.&.E Y x z ( 8.j.c.&.O ;.=.1 2 G H H H H H G r.[ O q.*Xj.j.t...f S T ^ 9.a.j.5XAXVXVXVXDXDXDXDXDXDX",
"DXDXDXDXDXDXDXVXVXBXVXkXb.g.u.-.T Y S k / 0.g.$X:.o X.( , 2 H ] [ H ' H G r.] O q.*Xx.f.a./ p S T ^ 5.a.z.5XSXMXVXVXDXDXDXDXDXDX",
"DXDXDXDXDXDXDXVXVXVXAXbXb.g.0.#.^ S S h Q e.f.n.8.o [ .., 2 G P H [ ] H Z 0.' o q.:Xj.f.a.W i N v ^ -.e.g.gXSXVXVXVXDXDXDXDXDXDX",
"DXDXDXDXDXDXDXVXVXVXVXMXc.a.8.*.R U x f T e.s.$X9.. F  .* , 2 C 3 C 2 2 2 0.F . q.*Xj.d.a.Y i k Y ^ 4.w.a.gXAXMXVXVXDXDXDXDXDXDX",
"DXDXDXDXDXDXDXVXVXVXVXnX$Xr.9.*.R Y z f Y r.a.c.q.. 3  .& , 1 1 2 2 2 1 1 5.3 . 8.&Xf.d.p.M i f S ( 3.0.d.kXAXVXVXVXDXDXDXDXDXDX",
"DXDXDXDXDXDXDXVXVXVXNXVX$Xr.9.*.^ c k h N w.a.x.q.. 1 ~ @ & & * , , , , , -.3 . :.c.p.p.r.M p h z T -.w.f.hXVXVXVXVXDXDXDXDXDXDX",
"DXDXDXDXDXDXDXVXVXVXVXAXXXr.0.*.Y x z i M w.p.x.q.. , ! , 1 n n 2 C 2 2 , =.3   =.$Xf.p.0.p u f k c ^ 3.r.bXZXVXVXVXDXDXDXDXDXDX",
"DXDXDXDXDXDXDXVXVXVXVXZXXX3./ c l h h j W 3.w.j.u.O @ [ Z J L H H L H L 2 @.1   ..z.a.9.3.1.[ M N T &.i.2XMXMXVXVXVXDXDXDXDXDXDX",
"DXDXDXDXDXDXDXVXVXVXVXVXAXcX5X+X.X+X2XhXfXh.p.a.8..   D J K P P P P P J J D O   ..x.k.XX2XAXDXnXcXcXnXSXSXVXVXVXVXVXDXDXDXDXDXDX",
"DXDXDXDXDXDXDXVXVXVXVXVXVXVXAXSXSXDXDXVXAXSXvXhX2X`.O.;.| ] ] ] ] [ | | <.2.'.}.fXnXVXSXDXNXNXZXZXAXNXNXVXVXVXVXVXVXDXDXDXDXDXDX",
"DXDXDXDXDXDXDXVXVXVXVXVXVXVXNXVXnXVXNXNXVXVXBXAXSXDXDXSXCXNXnXvXnXvXAXSXSXSXSXSXZXAXVXVXNXVXVXNXnXVXVXAXVXVXVXVXVXVXDXDXDXDXDXDX"
};
