/* XPM */
static char *_9c75532792042088ef527557ee144ddiEEyDy2um5HFlIZz[] = {
/* columns rows colors chars-per-pixel */
"64 64 188 2 ",
"   c #364F2A",
".  c #355027",
"X  c #395627",
"o  c #37522A",
"O  c #3A552A",
"+  c #3D5B2D",
"@  c #3E5D30",
"#  c #3F6A25",
"$  c #3C6F2B",
"%  c #3F722F",
"&  c #3F6031",
"*  c #415E2E",
"=  c #415E32",
"-  c #436D27",
";  c #42632F",
":  c #46692F",
">  c #457126",
",  c #45732B",
"<  c #49752E",
"1  c #4C7A2F",
"2  c #446432",
"3  c #496634",
"4  c #466A34",
"5  c #4A6C36",
"6  c #4B6D39",
"7  c #467332",
"8  c #4C7336",
"9  c #4C7235",
"0  c #477930",
"q  c #4D7C35",
"w  c #4B7138",
"e  c #4B703A",
"r  c #4D7038",
"t  c #4C7239",
"y  c #4D7338",
"u  c #4C713B",
"i  c #4D733A",
"p  c #4F723A",
"a  c #4E7139",
"s  c #4C7438",
"d  c #4D7539",
"f  c #4E7439",
"g  c #4F7538",
"h  c #4F7739",
"j  c #4E7638",
"k  c #4F753A",
"l  c #4E763A",
"z  c #4E733D",
"x  c #4D713D",
"c  c #4E753C",
"v  c #4F7239",
"b  c #4F7D39",
"n  c #517537",
"m  c #507F34",
"M  c #50733B",
"N  c #51743A",
"B  c #52753B",
"V  c #51773B",
"C  c #517639",
"Z  c #50733D",
"A  c #51773C",
"S  c #51773E",
"D  c #53763E",
"F  c #51743A",
"G  c #51793B",
"H  c #52783B",
"J  c #537A3B",
"K  c #54783B",
"L  c #537D3B",
"P  c #51793D",
"I  c #52783D",
"U  c #53793C",
"Y  c #53793F",
"T  c #537B3F",
"R  c #537B3D",
"E  c #55793C",
"W  c #547B3C",
"Q  c #567A3D",
"!  c #557B3E",
"~  c #577B3E",
"^  c #537D3E",
"/  c #557C3D",
"(  c #557D3E",
")  c #567D3E",
"_  c #557F3F",
"`  c #577E3F",
"'  c #577E3D",
"]  c #537B3C",
"[  c #517340",
"{  c #547643",
"}  c #537842",
"|  c #557B41",
" . c #577F40",
".. c #557E41",
"X. c #547B40",
"o. c #587F40",
"O. c #597F42",
"+. c #4E8036",
"@. c #538435",
"#. c #588737",
"$. c #53803F",
"%. c #57813F",
"&. c #54843B",
"*. c #58833E",
"=. c #59873C",
"-. c #56893C",
";. c #5A893D",
":. c #578141",
">. c #568040",
",. c #588240",
"<. c #598142",
"1. c #588242",
"2. c #5A8442",
"3. c #5A8444",
"4. c #5A8B41",
"5. c #7FBF4F",
"6. c #76BD57",
"7. c #7BBA56",
"8. c #7DBD5B",
"9. c #7BBE65",
"0. c #7EC15C",
"q. c #7FC363",
"w. c #80BF57",
"e. c #81BE5A",
"r. c #82BE61",
"t. c #85BD6B",
"y. c #83C256",
"u. c #83C45D",
"i. c #89C65E",
"p. c #86C95E",
"a. c #8BCA5D",
"s. c #92CD5F",
"d. c #8DD05F",
"f. c #91D05E",
"g. c #84C563",
"h. c #89C663",
"j. c #86C964",
"k. c #8BCC64",
"l. c #84C56A",
"z. c #8AC46B",
"x. c #86CA6A",
"c. c #8BCD6A",
"v. c #91CE65",
"b. c #91C66D",
"n. c #91CE6B",
"m. c #8DD166",
"M. c #8ED16B",
"N. c #92D265",
"B. c #98D567",
"V. c #95D867",
"C. c #93D46B",
"Z. c #99D66D",
"A. c #96D96E",
"S. c #9ADA6D",
"D. c #8CC472",
"F. c #87C971",
"G. c #8CCC72",
"H. c #90C472",
"J. c #94CC73",
"K. c #99CE74",
"L. c #94CC7C",
"P. c #98CF7C",
"I. c #8ED271",
"U. c #93D572",
"Y. c #9AD573",
"T. c #96D973",
"R. c #9BDB73",
"E. c #93D578",
"W. c #9BD37A",
"Q. c #9CDC7A",
"!. c #A0DE73",
"~. c #A2D77C",
"^. c #A0DC7A",
"/. c #9DE26F",
"(. c #9EE076",
"). c #9EE17A",
"_. c #A1E173",
"`. c #A8E775",
"'. c #A9E977",
"]. c #A3E37A",
"[. c #A9E57C",
"{. c #9ED584",
"}. c #A0D783",
"|. c #A2DC81",
" X c #A9DE84",
".X c #A3E480",
"XX c #ACE584",
"oX c #ABEE82",
/* pixels */
"  o o o O O O O * * * = + + & & 2 @ 2 2 2 2 & 2 2 2 2 2 2 3 3 2 2 2 2 2 2 2 2 2 2 2 2 2 2 = = = = = = = & + + + O X O O o o o   ",
"o O O O O + * * * * = = 2 2 ; 2 2 2 2 2 2 2 2 2 4 4 5 3 3 3 3 6 6 4 4 4 4 4 5 2 2 2 2 2 2 2 2 2 3 2 = = & & & & + & + O O O O o ",
"X X + + + * * * * 2 2 2 3 : 4 4 4 4 4 4 6 4 4 e 6 6 6 6 e 4 6 6 6 4 6 6 4 e 6 4 4 6 5 5 6 4 4 2 2 2 3 2 ; ; 2 & & & + + * X O X ",
"* + + * * * 2 2 2 2 2 3 4 4 : 4 4 e 6 6 6 e e e w e 6 6 e e [ i w y w w e w e w 6 9 5 6 6 6 6 5 6 4 5 4 4 ; ; & & ; ; ; * * * + ",
"* * = = 2 2 2 4 4 4 4 5 5 5 5 5 w w 9 s s s s h s s h h i i i i h F h F i h y y h y y M M y M 5 5 7 4 4 4 4 4 4 4 2 2 2 * * * * ",
"* * = = 2 2 4 4 5 5 5 6 5 n M F y h h h h h h G i b G G P P P P D P D P } G P D F G D F M F F s 8 9 9 w e e 6 4 4 4 2 2 * 2 * * ",
"= = 2 2 3 4 6 5 9 9 y h i z Z D F F G K G K K K _ E _ K _ E _ E _ E ~ ~ ~ E E E ~ K E K K K D F n n h h w e e 6 6 6 3 3 3 2 = * ",
"3 2 3 [ 6 6 6 w 9 9 h i D D { } P E _ _ _ _ O.~ O._ ~ 1...*...O.O.O.O.~ 1.O.*.~ ~ _ ~ _ E E G P P P F F h i e [ [ 6 6 6 3 3 2 : ",
"2 5 5 5 [ e [ [ h h b P P O.} } ..X.>...1...' 2.1.3.O.1.3.3.3.1.>.3.3.>.1.1.1.*.%.%.%.%.G ..%.^ } | P E D } i z [ [ 6 Z 5 : : : ",
"> - < 7 % b % :.q L q +.@.q &.=.-.2.-.-.-.-.;.;.4.=.=.=.4.;.-.4.-.4.4.4.-.;.;.-.=.-.-.&.-.-.&.&.&.@.%.L b q b q 8 w < 7 8 < - - ",
"[.XXG.c.F.G.E.q.l.G.Q.U.U.Q.n.n.z.g.x.Q.W.b.n.K.~.~.~.n.k.Y.R.Y.Y.z.z.U.z.c.W.c.b.c.Y.J.z.l.l.q.l.c.l.r.l.l.z.t.Q.^.J.c..XW.G.J.",
"a.a.u.j.q.F.E.q.x.x.x.j.M.m.m.k.c.m.Z.V.u.v.S.h.N.N.y.v.N.s.N.m.g.g.j.c.T.k.k.C.C.c.j.U.U.I.q.G.).M.8.g.g.g.j.j.x.j.k.g.g.g.I.U.",
"B.S.k.k.T.q.E.E.q.x.x.0.M.c.M.j.M.I.k.M.C.k.k.R._.N.u.k.(.m.V.p.T.c.x.Q.c.j.g.g.h.g.M.Q.I.F.F.G.E.j.u.u.p.R.Y.n.k.g.k.g.g.x.U.g.",
"N.k.n.c.q.E.E.x.j.x.j.x.g.M.x.c.E.M.j.x.c.k.C.R.Z.B.i.N.m.m.p.A.M.0.x.6.u.q.k.j.U.I.g.q.q.q.q.x.x.c.C.C.].Z.Y.N.n.c.z.l.l.l.r.l.",
"h.C.C.g.q.M.T.q.j.m.x.).T.F.x.G.F.q.x.x.g.j.u.0.k.k.Z.k.T././.x.0.u.M.C.0.C.A.R.R.k.g.j.q.6.x.c.k.(.u.n.m.C.k.R.R.k.g.j.l.x.x.F.",
"h.c.u.c.q.q.T.V.m.q.A.j.x.q.F.l.q.q.j.x.c.I.c.G.k.m.k.M.M.A.x.m.M.c.R.m.C.C.k.m.j.m.u.g.j.M.U.c.T.u.j.m.R.k.k.C.u.k.k.x.g.G.l.l.",
"i.k.k.Z.p.R.C.k.m.k.0.U.T.q.q.l.j.q.q.I.I.T.T.q.x.x.x.q.M.x.M.I.n.n.c.j.A.k.k.u.M.A.M.m.M.I.M.U.k.C.j.k.C.k.j.C.A.M.v.v.Z.C.c.C.",
"C.N.B.u.k.k.C.m.C.i.R.].x.c.k.u.k.x.q.q.q.q.q.E.M.x.I.I.q.q.M.m.n.k.Y.C.g.j.R.T.I.M.V.V.k.k.M.x.x.M.g.j.x.c.j.c.i.A.v.B.A.k.v.C.",
"C.p.i.A.A.B.N.C.h.k.v.c.m.C.C.k.M.M.q..XT.q.T.q.M.M.m.j.F.q.m.j.k.R.m.0.j..XQ.k.m.m.M.A.k.A.m.A.T.x.g.j.U.c.z.g.C.Z.k.B.V.V.k.N.",
"k.k.C.T.k.v.k.k.C.].B.v.k.R.C.k.I.q.I.I.q.A.)./.T.x.x.x.I.I.V.V.m.j.k.C.x.g.g.h.M.M.I.k.V.V.A.V.M.c.M.M.j.x.j.l.n.k.C.N.S.d.V.a.",
"T.A.M.m.U.m.c.k.[.a.N.s.S.!.y.v.A.I.T.q.V.q.V.V.M.M.A.A.m.C.M.m.i.k.(.M.q.M.I.u.m.m.M.M.k.A.T.g.T.x.M.M.0.8.r.n.Y.i.v.i.a.m.d.m.",
"m.k.m.M.m.k.n.B.S.B.S.s.v.s.!.a.j.I.q./.q.q.q.q.k.V.m.p.p.A.A.U.j.M.M.x.x.l.g.x.M.0.I.m.h.oXk.M.U.k.U.c.j.j.n.C.b.n.v.k.a.i.M.m.",
"I.M.x.k.j.A._.C.N.B.v.i.s.!.V._.oXA.q.m.T.m.0./.m.p.V./.A.A.U.U.I.G.x.x.x.l.x.l.g.x.g.g.n.n.x.g.h.j.m.C.k.k.C.!._.S.k.k.M.I.x.x.",
"x.I.j.m.k.(.A.k.k.v.v.i.v.B.(.(.d.m.d./.M.m.).V.j.V./.d.p.k.x.x.x.x.l.F.l.l.x.q.l.x.j.g.g.r.n.C.m.m.U.k.k.j.v.a.S.i.Y.c.I.x.I.E.",
"M.x.M.q.c.U.q.j.C.C.k.k.M.A.A.j.k.V.m.m.M.U.k.c.k.S./.S.m.m.j.x.x.k.x.g.l.F.9.9.l.x.c.c.J.g.U.k.k.k.u.j.j.k.a.w.s.N.h.n.z.l.c.c.",
"M.j.j.x.j.c.M.m.m.m.m.M.A.0.0.j.m.p.A.).R.j.j.R.k.S.'.m.m.(.x.x.U.g.q.x.l.q.F.t.l.G.c.U.g.Y.u.k.oXk.U.Q.h.p.k.S.B.k.Y.h.g.z.x.I.",
"x.q.k.M.c.m.M.j.x.k.j.M.q.0.M.I.q.q.m.k.m.m.k.N.A.].M.0.A.V.M.M.k.C.U.c.g.c.l.l.z.c.u.u.c.(.C.k.a.B.U.g.l.n.C.C.v.R.n.k.j.i.k.A.",
"j.x.x.x.j.g.M.M.m.x.j.x.x.M.T.M.M.0.j.I.(.T.u.C.M.p.m.p.m.m.m.m.m.M.m.k.c.k.Y.b.k.C.C.N.R.m.k.m.R.R.g.q.c.z.c.j.n.C.i.h.C.p.V.m.",
"q.T.G.q.I.I.g.c.I.m.m.x.A.U.j.M.M.q.m.T.M.j.N.N.y.R.Q.k.n.N.B.(.k.Z.k.C.n.n.Z.a.S.S.k.k.A.M.j.M.k.k.k.g.x.M.c.c.c.k.k.S.A.a._.f.",
"E.I.8.I.U.q.c.U.M.M.C.k.U.j.I.U.q.j.j.V.).m._.f.V.].k.c.C.C.V.p.k.k.C.k.C.v.n.!.N.m.k.k.m.p.q.u.k.Y.n.c.j.q.c.F.n.j.v.!.N.S.V.m.",
"q.q.x.x.x.x.M.C.M.M.k.T.A.M.(.k.T.k.(.A.k.k.S.a._.!.e.e.u.e.i.k.k.C.v.v.k.C.Z.k.M.a.m.T.A.p.C.U.C.e.C.B.m.C.l.x.z.k.v.N.s.v.N.v.",
"x.q.q.q.x.m.x.C.M.k.m.U.k.C.k.k.A.M.).m.C.Z.i.a.S.k.Z.n.h.v.Z.R.S.Y.C.h.v.k.k.Z.M.m.(.T.m.M.C.k.e.U.k.k.m.k.c.x.c.g.N.V.a.!.n.k.",
"j.x.j.M.T.A.g.k.m.C.n.k.n.i.r.k.k.R.B.N.N.m.A.m.k.C.k.n.C.S.Z.v.k.h.g.l.k.x.Z.R.i.V.(.k.v.u.u.a.k.k.k.i.p.m.M.M.M.q.A.d.d.f.k.C.",
"A.M.c.M.k.M.T.m.M.p.c.x.n.z.J.k.n.N.j.C.k.M.A.M.M.k.C.k.k.v.k.k.j.C.U.C.U.R.A.p.k.S.R.k.C.v.].B.i.k.Z.m.A.C.A.M.M.A.p.d.N.`.!.k.",
"M.k.M.A.p.).c.c.k.M.c.U.c.n.Q.c.!.v.N.N.m.A.M.M.M.A.k.k.v.k.N.v.c.m.c.c.c.m.C.i.m.C.k.c.k.R.C.y.p.N.T.k.N.A.R.x.A.m.m.k.`.'.N.v.",
"j.m.M.p.A.j.c.c.k.c.c.x.g.U.k.k.k.v.M.k.C.C.U.M.M.A.C.v.n.n.b.v.v.k.k.N.C.k.m.C.k.C.p.k.C.7.h.Y.u.C.k.A.N.S.j.U.k.j.j.g./.i.N.].",
"a._.a.N.k.C.n.c.q.M.c.c.I.g.I.x.c.c.M.c.M.M.x.A.C.i.m.m.N.N.B.B.k.C.m.m.R.m.k.c.Z.M.C.c.Y.x.c.8.h.h.Z.R.N.B.B.U.k.j.M.A.m.k.m.x.",
"S.N.i.[.Z.v.v.n.x.Y.x.Q.g.g.j.x.c.c.g.x.E.M.T.T.A.M.m.(.a.!.`.S.N.m.m.k.m.k.c.k.j.k.j.j.U.T.c.U.g.J.B.u.k.j.k.Y.A.V.V.(.M.x.M.x.",
"c.u.].N.i.b.h.C.Y.j.j.C.x.x.x.C.M.m.g.g.M.M.M.M.M.0.T.k.v.S.C.u.k.k.A.k.m.R.R.c.g.c.j.k.T.c.U.I.T.C.m.k.i.h.i.C.m.k.m.M.I.I.0./.",
"G.c.c.j.n.v.k.B.i.c.p.R.x.0.k.g.j.(.j.u.j.m.0.C.j.g.j.u.u.n.n.C.k.Z.A.k.B.m.k.M.k.j.0.A.k.j.q.j.c.u.A.S.k.k.n.u.k.A.m.A.M.x.0.q.",
"T.c.q.M.U.x.Z.C.v.k.v.S.v.k.k.T.].m.u.B.R.M.j.0.g.0.m.g.m.x.C.Z.e.C.u.C.k.k.c.k.c.j.k.m.k.p.0.j.x.M.M.u.k.m.k.i.V.V.n.k.x.U.g.x.",
"l.g.j.T.G.g.!.i.C.v.v.B.Z.u.k.n.Z.i.k.N.j.u.c.T.g.(.U.0.j.j.m.u.^.e.R.Y.u.h.k.U.G.c.M.T.M.k.k.j.M.M.0.m.C.k.n.C.S.N.v.h.Y.l.q.l.",
"g.0.(.I.c.h.i.e.z.^.i.Y.k.e.v.R.m.u.k.k.T.m.U.c.U.M.g.k.U.g.p.T.h.Y.U.u.u.n.T.U.M.c.C.m.A.k.k.k.M.k.m.R.k.k.Z.k.N.a.h.c.c.g.h.Z.",
"8.I.I.m.Y.u.c.n.n.h.7.Y.n.i.C.v.Z.h.k._.C.p.g.k.j.g.M.Z.j.j.u.m.k.h.k.p.g.R.9.g.x.c.M.m.k.A.A.A.A.I.T.j.j.Q.N.[.^.C.k.C.g.c.U.k.",
"Q.c.u.x.8.n.T.g.j.k.v.v.k.a.v.R.N.k.i.k.k.M.k.m.j.x.n.c.c.u.^.C.p.k.R.h.c.x.g.g.j.Q.C.k.c.i.m.C.m.j.M.A.c.k.A./.k.C.k.M.l.x.g.k.",
"M.g.T.l.x.n.0.8.Z.C.C.u.S.i.Z.n.(.B.k.m.Z.m.[.m.k.z.c.C.p.Z.Y.e.k.C.k.c.c.k.^.g.C.c.j.h.k.R.i.k.A.k.C.I.l.k.S.V.k.g.k.U.g.x.g.u.",
"j.k.m.m.k.R.j.U.Z.C.7.c.R.j.g.g.k.m.m.c.x.T.m.m.k.B.k.k.C.v.v.N.i.N.R.C.8.Q.k.u.k.j.c.l.k.C.v.Z.i.C.c.j.c.n.(.V.0.0.U.M.c.q.c.M.",
"u.j.k.C.C.i.R.k.i.j.p.g.k.k.c.T.C.j.p.R.Z.C.c.j.n.u.v.B.B.i.S.a.a.R.Z.u.n.x.u.C.c.c.g.x.h.x.R.N.v.S.u.c.U.k.m.M.g.c.T.I.I.T.I.M.",
"k.8.Y.e.k.Z.m.k.k.C.k.k.N.A.B.R.k.u.A.(.m.A.Z.C.k.k.N.N.v.a.v.k.v.v.i.C.!.i.R.m.U.c.c.c.x.M.M.m.R.y.m.[.R.j.A.A.k.T.M.x.I.q.q.M.",
"r.C.u.j.C.m.k.k.Z.p.m.(.C.R.a.i.B.k.T.k.A.A.k.c.C.m.C.C.v.^.[.S.n.v.i.S.k.k.c.k.J.G.x.G.j.m.A.m.a.a.A.(.j.B.A.k.m.C.k.U.x.g.x.q.",
"C.k.u.j.j.(.C.T.c.M.k.k.N.m.m.(.C.u.k.k.U.k.k.C.n.C.Z.k.N.v.n.B.C.!.N.y.a.S.m.k.k.j.M.x.x.M.k.m.B.].V.a.v.k.v.k.k.k.T.k.A.g.G.q.",
"M.n.x.C.C.C.m.C.k.m.k.k.A.M.V.N.p.k.h.Y.m.j.n.k.n.v.c.C.v.b.v.v.Y.B.k.N.S.A.k.c.c.x.x.j.j.p.k.A.].C.k.B.v.v.k.v.V._.R.C.M.U.M.q.",
"G.m.U.Z.R.k.p.k.R.m.k.Z.m.N.i.p.v.B.b.Z.v.i.C.v.u.B.!.S.v.v.B.B.C.k.C.C.C.v.Z.n.I.x.h.g.8.c.T.h.k.c.h.g.Y.n.k.C.C.N.U.n.M.I.c.g.",
"G.J.J.^.n.k.R.n.x.n.n.n.Z.c.v.R.n.s.Y.Z.~.v.n.h.h.n.b.v.K.h.b.B.h.n.^.n.n.c.c.h.z.l.l.t.Q.{.x.h.g.z.l.U.h.z.J.l.r.x.z.g.x.G.l.F.",
"P.H.H.H.H.|.K.z.W.W.K.K.Z.b.~.W.J.t.W.t.t.b.W.z.K.n.b.K.b.K.~. XK.z.b.W.n.J.G.{.P.z.t.}.W.t.z.z.D.D.D.L.P.L.t.z.z.{.G.t.9.D.D.{.",
"- - > > > < , q q 1 1 m 1 @.@.@.@.@.@.@.L #.&.&.=.=.&.@.#.#.#.#.@.-.=.@.#.-.&.+.&.&.@.b -.&.b &.b @.b q q 0 q 7 , , 7 % 7 $ $ $ ",
"; ; 4 4 : 5 9 7 9 n y F G n L n L ^ ^ ^ ^ >.>.%.>.%.*._ L *.&.*.%.&.&.L @.@.L ^ _ _ _ _ _ G L L K K n n s n s 9 7 7 5 : : 4 ; $ ",
"2 2 2 2 4 5 5 5 6 5 z z M M F K D F P P } ^ } P } E E _ Q _ K K ^ L _ _ E _ G ^ E K K K E G F F n n N a r r r 6 5 5 5 3 4 2 2 2 ",
"& 2 2 2 4 2 5 3 6 6 6 6 6 y F F n n n n F F E F K G K G K K K K G G K G G F G D K N K F D M M n r r a a r 5 6 3 3 3 3 2 2 = = = ",
"+ + + 2 2 2 2 2 5 2 6 5 6 5 n 5 5 n 9 n y M M n F n n n n n n n n n n F F M n F M r M M 6 M r 5 r 5 5 5 5 5 6 2 3 3 2 2 = = @ @ ",
"O + & * * ; ; ; : 2 3 4 5 4 3 5 4 5 5 5 6 5 6 6 y r r r 5 n n r r n 6 y 5 M r r 5 6 5 5 6 6 6 6 3 4 4 4 2 2 2 2 2 2 ; & = + @ O ",
"O O O + + + + ; ; ; ; 3 2 3 : : 4 2 3 5 5 6 6 6 5 5 5 5 5 5 5 5 5 6 5 6 5 5 5 5 5 4 5 5 6 3 4 4 : 3 2 : 2 2 2 2 + & + + + + O o ",
"o O O O O * + @ * * = = = 2 : 2 2 : 2 2 3 2 3 3 2 3 3 3 5 3 4 4 5 3 4 4 4 4 3 5 e 4 2 4 2 2 2 2 & 2 2 2 = = = * + + + O O O O o ",
"  o o O O o + + + + = = * * * * * 2 2 2 2 2 2 2 2 2 2 3 2 2 3 2 4 2 2 2 2 2 2 2 & 4 & 2 2 & & & & 2 + + @ + + + + + O O O o o o "
};
