/* XPM */
static char *_17302ada1ae4b42ba2618092c51b9ddxocmVXWnVPkDsHi8[] = {
/* columns rows colors chars-per-pixel */
"64 64 197 2 ",
"   c #CA4D37",
".  c #9C7654",
"X  c #9E7B5A",
"o  c #BE6959",
"O  c #A17C5C",
"+  c #BC725F",
"@  c #B4785E",
"#  c #A57F61",
"$  c #B97C66",
"%  c #D65B47",
"&  c #C76959",
"*  c #DC6B59",
"=  c #CA6E61",
"-  c #C37367",
";  c #C67568",
":  c #CD766A",
">  c #C67C6B",
",  c #D27263",
"<  c #DC766A",
"1  c #D3796E",
"2  c #DD796C",
"3  c #D47C71",
"4  c #DD7E72",
"5  c #E27465",
"6  c #E47368",
"7  c #E47A6D",
"8  c #E57D72",
"9  c #E97D73",
"0  c #A2805E",
"q  c #A58263",
"w  c #AA8466",
"e  c #AC8769",
"r  c #AC8A6C",
"t  c #BC876E",
"y  c #B28B6E",
"u  c #B38E71",
"i  c #B98C72",
"p  c #B59174",
"a  c #B99275",
"s  c #BC957A",
"d  c #B9967D",
"f  c #D6816D",
"g  c #CB8374",
"h  c #C88776",
"j  c #D98479",
"k  c #DD857B",
"l  c #D48A7C",
"z  c #C1917B",
"x  c #CB937F",
"c  c #E58175",
"v  c #E6857A",
"b  c #EA847B",
"n  c #E58A7E",
"m  c #E8897F",
"M  c #B89C84",
"N  c #BEA592",
"B  c #D58E83",
"V  c #DD8E82",
"C  c #CC9682",
"Z  c #C59C84",
"A  c #CB9E8A",
"S  c #D69385",
"D  c #D39B87",
"F  c #D99488",
"G  c #D59A8B",
"H  c #DA9C8D",
"J  c #D89F92",
"K  c #E48C82",
"L  c #EB8B83",
"P  c #F38D85",
"I  c #ED9187",
"U  c #E39288",
"Y  c #ED948B",
"T  c #EA988F",
"R  c #F3938B",
"E  c #FA958F",
"W  c #F4988C",
"Q  c #E29C92",
"!  c #ED9C94",
"~  c #F79690",
"^  c #F59B94",
"/  c #F99C96",
"(  c #F69F98",
")  c #FA9E99",
"_  c #CCA28D",
"`  c #D3A08E",
"'  c #CAA792",
"]  c #D4A494",
"[  c #DCA394",
"{  c #D2A895",
"}  c #DFA599",
"|  c #DEAD9E",
" . c #E2A196",
".. c #E6A59C",
"X. c #ECA39B",
"o. c #E6A99E",
"O. c #F1A096",
"+. c #F4A39C",
"@. c #FAA39D",
"#. c #F3A99D",
"$. c #DCAFA1",
"%. c #D8B7A9",
"&. c #E5ACA2",
"*. c #EEAAA4",
"=. c #ECACA4",
"-. c #F6A7A1",
";. c #FBA6A1",
":. c #F3ABA4",
">. c #FBAAA4",
",. c #F7AFA8",
"<. c #FCAEA9",
"1. c #E5B2A6",
"2. c #E5B6AB",
"3. c #EDB5AD",
"4. c #E7BAAE",
"5. c #EBB9AE",
"6. c #F5B5AB",
"7. c #F3B3AC",
"8. c #FCB2AC",
"9. c #ECB7B1",
"0. c #E7BDB2",
"q. c #EFBAB2",
"w. c #F4B6B0",
"e. c #FDB6B1",
"r. c #F3BBB4",
"t. c #FDBAB5",
"y. c #F5BEB9",
"u. c #FDBEB9",
"i. c #CFC0B1",
"p. c #D9C6BA",
"a. c #E9C1B8",
"s. c #F4C1BA",
"d. c #FDC2BD",
"f. c #FCC9BD",
"g. c #DCCEC4",
"h. c #DDD2CA",
"j. c #EBCDC6",
"k. c #F4C7C3",
"l. c #FEC6C1",
"z. c #F3CCC6",
"x. c #FECAC5",
"c. c #F2CECA",
"v. c #FFCEC9",
"b. c #E1D6CE",
"n. c #EED4CF",
"m. c #FED7C6",
"M. c #F3D0CD",
"N. c #FFD2CD",
"B. c #ECD4D2",
"V. c #E3DBD6",
"C. c #EBDAD5",
"Z. c #ECDEDB",
"A. c #F5D6D3",
"S. c #FED6D2",
"D. c #F3D9D6",
"F. c #FEDAD5",
"G. c #F6DDDB",
"H. c #FEDEDA",
"J. c #EAE3DE",
"K. c #FAE4DA",
"L. c #FFE2DE",
"P. c #EDE6E4",
"I. c #EDE9E6",
"U. c #EDEDED",
"Y. c #F5E4E2",
"T. c #FEE5E1",
"R. c #F6E8E6",
"E. c #FFEAE5",
"W. c #F2EDEC",
"Q. c #FCEDEA",
"!. c #FFF3E6",
"~. c #F0F0EF",
"^. c #FFF1ED",
"/. c #EFEFF0",
"(. c #EFF2F2",
"). c #EEF3F3",
"_. c #EFF9FA",
"`. c gray94",
"'. c #F1F1F1",
"]. c gray95",
"[. c #F3F2F2",
"{. c #F3F3F3",
"}. c #F2F5F5",
"|. c #F4F4F4",
" X c #F5F5F5",
".X c #F7F6F6",
"XX c gray97",
"oX c #FBF5F4",
"OX c #FFF9F6",
"+X c #F4F7F8",
"@X c #F5F9FA",
"#X c #F5FAFA",
"$X c #F8F8F8",
"%X c #F9F9F9",
"&X c #FAFAFA",
"*X c #FDFDFD",
"=X c white",
/* pixels */
"=X=X=X=X=X=X=X=X=X=X=X=X=X=X=X=X=X=X=X=X=X=X=X=X=X=X=X=X=X=X=X=X=X=X=X=X=X=X=X=X=X=X=X=X=X=X=X=X=X=X=X=X=X=X=X=X=X=X=X=X=X=X=X=X",
"=X=X=X=X=X=X=X=X=X=X=X=X=X=X=X=X=X=X=X=X=X=X=X=X=X=X=X=X=X=X=X=X=X=X=X=X=X=X=X=X=X=X=X=X=X=X=X=X=X=X=X=X=X=X=X=X=X=X=X=X=X=X=X=X",
"=X=X=X=X=X=X=X=X=X=X=X=X=X=X=X=X=X=X=X=X=X=X=X=X=X=X=X=X=X=X=X=X=X=X=X=X=X=X=X=X=X=X=X=X=X=X=X=X=X=X=X=X=X=X=X=X=X=X=X=X=X=X=X=X",
"=X=X=X=X=X=X=X=X=X=X=X=X=X=X=X=X=X=X=X=X=X=X=X=X=X=X=X=X=X=X=X=X=X=X=X=X=X=X=X=X=X=X=X=X=X=X=X=X=X=X=X=X=X=X=X=X=X=X=X=X=X=X=X=X",
"=XI.XXU.}.U.+XU.XXU.}.].].XXU.XXU.&XU.&XU.&XI.#XU.XXY.F.N.x.f.N./.XX].].].].XXU.XXU.$XU.$XU.&XI.&XP.&XU.oXU.$XU.XXU.].].].{.U.&X",
"I.#XU.&XU.XXU.XXU.XX].].].].XXU.XXU.XXU.+XU.#XU.R.S.N.x.N.x.d.,.y.U.XX].].].U.XX/.$XU.$XU.&XU.XXU.&XU.$XU.+XU.XXU.#X].].].].XXU.",
"&XU.+XU.&XU.XX/.XXU.].].].].U.XXU.+XU.&XU.oXU.Q.x.v.d.x.u.t.8.u./ x.(.}.+X].+X(.[.U.XXU.+XU.&XU.+XU.XXU.#XU.#X/.XX/.oX{.].]./.$X",
"U.+XU.&XU.XXU.XXU.XX].XX].].}.W.XXU.XXU.XXU.XXN.N.t.8.u.8.8.,.8.+.@.R.}.A.k.F.W.].XXU.XXU.+XU.#XU.#XU.+XU.oXW.+X].{.].].[./.XXU.",
"#XU.&XU.XXU.XXU.XX].].].].].].XXU.#X(.&X(.#XR.x.d.d.t.@.8.8.8.@.<.8.A.S.S.x.~ t.].U.XXU.+XU.+XU.XXU.&XU.XXU.XXU.XXU.].].].XXU.XX",
"U.XXU.#XU.XXU.XX].].].].XX].].(.XXY.G.A.R.~.G.x.t.;.@.>.#.@.@.>.-.;.u.x.d.,.@.R G.#X].+X).+X).#XU.XXU.XXU.XXU.XX].].].XX].].XXU.",
"XXW.oXU.XX`.XXU.].].].].].].].R.L.x.v.l.v.x.N.d.8.@./ >.@.@.+.@.@.<.t.e.t.8.;.P A._.W.R.K.T.A.G.XX(.+XU.XXW.XXU.].].].].].].].XX",
"U.XXU.#XU.XX].{.].].].].].].}.l.N.x.d.t.l.t.r.t.<.( ( ;.@.~ / ;.) -.8.S.OXOXQ.d.A.R.v.v.x.x.t.<.e.W.(.]./.XX].XX].].].].].].}.U.",
"}.].{.].{.(.}.].{.].{.].].XXW.u.8.t.t.t.<.d.u.<.@.;.<./ #.t.8.O.e.;.H.=X=XOX^.L.F.l.x.S.x.8.u.t.+.+.XX].{.].{.].XX].{.].].].].oX",
"].[.].].].{.].{.].{.].{.].].).( >.-.@.;.t.@.@.@./ ^ +.;.:.E.=XOXoXt.OXOX^.^.H.t.d.x.t.;.-.t.@.@.@.) y.#X].].].].].].].].{.].].{.",
"{.].].].{.].{.{.{.{.].{.{.].#Xk.E ^ E W >.~ @.( ( ~ ^ ( x.=X^.2.H.=XoX^.T.L.x.<.d.z.u.H.Q.T.7.-./ @.L W.}.].].{.].].].}.{.].].].",
"oX].].].{.].{.].].].{.].{.}.).#Xy.^ ^ / ^ @.@.@.~ ,.l.F.Q.OXQ.0.T.^.E.L.F.x.N.N.F.L.^.=X=X=X$.V +.R ~ D.}.].XX].].].].].].].].}.",
"U.+XW.}.].}.].].].].].{.].].W.P.R.e./ @./ ( @.+.v.=X=X=X^.L.L.L.F.H.H.F.N.x.v.N.H.L.Q.^.^.E.z.#.-.L I D.+X].].{.].{.].].].].].].",
"+XU.XX].XXU.].].{.].{.].XXT.N.v.v.e.) ^ <.^ / L.=XOX^.E.E.H.N.v.v.x.N.N.F.N.v.N.F.S.L.L.L.N.x.f.Q R b c.#X/.{.].{.].].].].|./.$X",
"U.oXU.#XU.XX].XX].].].{.R.N.v.l.x.t.-.) <.E S.=XQ.E.H.H.F.N.v.v.v.N.N.N.l.v.x.v.v.v.N.x.x.r.3.r.F Y P K._.{.U.XX].[.[.XX].].].U.",
"&XU.+XU.XXU.XXU.$X(.].+Xc.<.l.u.,.-.;.;.^ 8.!.K.L.L.N.N.N.x.x.v.N.d.8.^ +.N.v.m.v.N.v.v.d.5.w.5.B Y <.k.Q.{.+XU.+X/.].].].].].$X",
"U.XXU.XXU.XXU.XXW.}.].+XT.) ~ -.S.F.d.O.@.u.!.m.N.F.x.x.N.x.x.N.N.7.L R e.N.v.N.N.v.v.N.d.3.r.S k <.>.;.8.l.I.XXW.].].].[.].[.U.",
"&XU.XXU.XXU.XXU.XXU.[.].U.-.^ H.OXL.H.d.^ 6.m.d.l.x.v.N.N.x.x.x.v.x.x.x.N.N.N.v.N.f.x.N.d.d.s.Q +.e.<.e.e.+.>.I.+X].].].].#X].XX",
"P.#XU.XXU.oXU.XXW.XX[.[.#XB.S.Q.oXM.s.x.e.+.d.7.d.d.x.N.N.x.F.N.x.N.N.x.v.N.N.v.m.f.x.N.v.N.x.S. .3.<.<.8.;.R s.(.#X].].].].XXU.",
"&XU.&XU.#XU.+XU.XX[.{.].W.XXoXH.E.x.[ _ $.3.T * 2 t.N.N.v.N.Q.L.v.N.N.x.v.v.N.S.f.f.N.v.x.N.S.K.{ A u.<.( ! / X.oX].}.].].}.W.XX",
"U.+XU.&XU.XXU.XX].].E.T.H.H.L.l.x.t.t.7.x i t f % ! S.v.N.N.Q.H.N.N.v.x.N.N.N.S.N.N.N.N.N.N.F.H.a.1.t.Y ^ L 9 ! (.].(.].].W.XXU.",
"&XU.XXU.XXU.XXU.}.].T.OXT.T.E.N.H.d.x.S.v.c.' q Z f.S.N.v.v.S.N.N.v.x.N.v.N.x.r.N.n T x.N.x.x.x.y.q.9.v I v 9 2.#XW.XX].].XX(.+X",
"I.#XU.+XU.XXU.XX}.M.d.S.u.x.N.e.l.e.t.d.8.H.=Xj.r u 4.S.x.v.N.N.N.x.x.x.N.N.z._ d.7   n N.l.d.r.3.r.| 4 K v L R.).XX].].].].XXU.",
"&XU.oXU.XXU.XXU.#XN.) d.<.u.l.e.x.t.u.t.<.E.oXQ.S.Z O { N.N.N.F.N.N.x.v.x.x.F.L.N.=.c Y x.r.r.q.9.r.3 4 b ! Y.].+X(.].].].XXU.XX",
"U.+XU.XXU.XXU.XX(.].t.u.e.d.x.t.v.u.d.l.u.L.F.v.v.x.C X A S.N.N.v.v.x.x.d.N.N.2.u G N.x.s.q.q.r.s.F = b &.&X(.XX].].].].].W.XXU.",
"+XU.&XU.+XU.XX(.XX].W.x.;.e.t.;.t.;.;.<.-.l.y.r.q.d.u.M . ] F.6.x.x.x.x.x.r.p w ..l.l.l.s.q.s.9.G ; < v ].(.}.`.XX].].].].XX(.XX",
"U.+XW.XXW.XXU.XX].].oXQ.v.v.v.u.N.t.u.l.<.3.r.s.q.r.d.s.r O 1.E #.N.x.x.| O i u.x.l.x.l.r.3.F g g 8 I L Z.#XU.XXU.XX].}.].].].U.",
"+XW.+X].+X].XXW.].R.S.T.l.l.l.<.d.8.e.u.;.Q [ =.q.r.t.N.2.q e I e.N.v.| O z x.x.x.x.x.v.u.r.*.K R L 7 7 D.}.}.W.].].].].].].].XX",
"/.XXU.XXU.XX].].XXE.H.H.l.l.l.8.l...C C F J g h | l.l.x.x.A X z N.N.4.e i v.v.x.x.x.x.x.d.s.s.+.L L 8 m Z.#X].{.].].{.{.{.{.{./.",
"{.].{.].].].}.].R.E.N.H.v.v.N.t.N.t. .G t e q r a _ 1.s.s.h u q 5.q.a 0 6.l.d.l.x.d.d.v.d.3.r.X.v n v I ].(.].{.{.{.].].].].{.{.",
"].{.].{.].].].}.N.d.<.u.<.8.t.;.e.;.<.8./ -.L g e . X u ' , S u a _ X x u.3.r.r.d.5 n x.r.3.r. .4 m c s.#X].].XX].{.{.{.{.{.{.{.",
"{.].]./.XX].]./.v.t.;.w.:.8.t.8.l.e.u.l.<.l.t.e.3.&.Z w q a D d y y 0 o.3.7.3.w.7.* * t.r.5.s.g < L m W.].].].[.].{.].].{.].{.{.",
"{.]./.]./.].].XXB.T I ! T ! -./ e.;.<.8.;.t.>.<.X.B &.[ $ # u u u w w 3.7...7.=.3., f s.9.y.J & 6 R C.+X].].].[.].].].].].{.].].",
"/.XX/.XX].].].XX].3.L X.L ! -./ t.;.<.<.) e.;.( +.j h + V V e e p w w &.B > l X.*.3.w.3.w.Q o 1 r.W.}.{./.XX].].].{.].{.].].].].",
"XX/.oX/.XX/.}./.{.+Xc.k.J U 6.-.u.-.:.:.! 7.-.! *.( H K ( ) Y e p w X $ : c j l 3. .= #.y.2.g.R.#X].{./.oX/.XX(.{.{.{.{./.{.].XX",
"U.XX/.XX/.XX/.XX/.{.+X#XI.T ( R ! I I ! L ! L L T L : / / +.E K 0 w X + L b R < g a.] B.U.#X+X#XU.XX/.XX/.].U.XX].{.{.{.{.{.{.U.",
"XX/.$XU.XX].+XW.XX].].].XXy.+.! 9.! ! F ! w.( -.=.3 3 ( ^ R L E > r q @ L K L 6 ..#X=X(.$XU.{.W.XXU.$XU.XXU.XXU.+X/.].].].].].}.",
"U.+XU.{.U.{.].}.U.XXU.{.}.Z.T m ! I K - 3 Q K V 3 g Q v T ^ Y v I y e O K I 6 ! (.{.U.+XU.XXU.XXU.&XU.+XU.XXU.XXU.XX].].].].XXW.",
"+XU.$XU.+XU.oX/.XXU.{.].].#XB.*.y.c.; = L , = ; 1 8 v ! L v L Y 9 h p X ] *.y.~.XXW.+XU.XXU.oXU.XXU.oXU.+XU.XXU.{.U.XX].].[.U.+X",
"U.$XU.$XU.+XU.XXU.XX].].]./.#X_.@X@XC.9 9 9 9 9 7.Z.T L 9 L v L 9 G s . i.#X(.XXU.&XU.+XU.#XU.$XU.&XU.$XU.+XU.XX].XXU.XXXX(.XXU.",
"&XU.$XU.$XU.oXU.XXU.XX].].]./.{.W.{.(.R.9.X...c./.*XI.G.9.X.=.3.n.b.p 0 d XX].W.XXU.+XU.&XU.$XU.XXU.+XU.XXU.XXW.XX].XX].].XXU.$X",
"I.$XU.$XU.$XU.+XU.XX].].].].XXU.$XU.$X/.@X).=X).+XU.+X(.=X).&X].=XJ.s w r U.].XXU.XXU.oXU.+XU.+XU.+XU.&XU.&XU.XXU.{.U.].].U.XXU.",
"&XU.$XU.#XU.+XU.XXU.].].].[.].XX/.XXU.+XU.+XU.+XI.&XU.#XU.}.U.].(.P.Z y X J.#XU.XXU.+XU.$XU.$XU.XXU.oXU.+XU.XXU.XX].XX].].]./.&X",
"U.#XU.$XU.&XU.oXU.XX].XX].].{./.XXU.oXU.$XU.+XU.oXU.&XU.#XU.XXU.XXU.Z p O p.#X]./.XXU.&XU.$XU.$XU.$XU.#XU.XXU.XX].].U.].XX].[.U.",
"XXU.+XU.&XU.XXU.XXW.].].].XXU.XX/.XXU.$XU.$XU.&XU.+XU.XXU.XXU.XX].W.' p X %.*XU.XXU.XXU.XXU.&XU.oXU.XXU.&XU.+XW.+XU.XX].].].W.#X",
"U.+XU.+XU.XXU.+X/.}.].].XXU.XXU.XXU.#XU.XXU.+XU.XXU.XXU.XXU.XXU.XXU.Z p X N #XXXU.XXU.XXU.XXU.#XU.#XU.XXU.XXW.+XU.+X].].].].XXU.",
"$XU.oXW.XXU.].].XX].].].].].].].U.XXU.#XU.+XU.&XU.&XU.XXU.XX(.}.(.I.Z p q M +XU.XXU.XXU.XXU.&XU.&XU.XXU.XXU.XXU.oXU.].].].].W.XX",
"U.#XU.+XU.XX].XXU.XX].].XX].XXU.XXW.XXU.oXU.XXW.XXU.XXU.XXU.XXW.XXP.Z p q p U.XXU.XXU.XXU.XXW.}.U.+XU.XXU.XXU.XX(.+X].XX].].XXU.",
"$XU.$X/.XXU.XXU.].].].].].].(.[.U.XXU.XXU.XXU.oXU.XXU.XXU.XX~.XX}.J.x a r r U.].XXU.XXU.XXU.XXU.XXW.XXU.XXU.$XU.].].XX].].].].XX",
"].{.U.XX~.|.U.XX].].].XX].].].].XX].XXU.XX].#XU.#XW.XXU.XXU.].~.#XC.s p r w P.XXU.XXU.XXU.XXU.XXU.XXU.XXW.XX].{.].].].].}.].}.W.",
"[.U.XX/.XX].].U.].].].].].].].XX].].].XXU.XX].+XU.XX/.XX].].].].&Xp.p y w O V.+X].].XXU.XX].].(.+X].].].}.].].].].].}.].].].].XX",
"].XX].].].[.].XX].XX].[.].].].].].].].].].U.].].].].].].].].].].&Xp.a y e . b.#X].].].].].].].].].].].].].}.].].].].].].].].].].",
"].].].].].].].].].].].XX].].].].].].].].].].].].XX[.].].XX].].].#X%.a y r . g.#X].].].].].].].XX].].].].].].].].].].].].].].].].",
"].].XXU.].].].].].].].].].].].].].].].XX].].].}.].].].}.].].].].U.' p r r . g.#X].].].].].].[.W.].].}.W.].].].].XX].].].].XX].].",
"].XXU.&X].XXU.XXU.XX].].].].XXU.}.].].].XXU.+XU.XXU.].W.].].].XXI.s e w w . h.#XW.}.].XX].oXU.#X].XX].XX].XXU.XX].].].].].].].].",
"XXU.XXU.XXU.XX].&XU.].].].].].XXW.XXU.XXU.XXU.oXU.#XU.XXU.XXU.#XJ.w 0 O O O h.#X].U.XXU.+XU.#XU.#XI.}.U.XXU.XX].XX(.].].].XX].XX",
"=X=X=X=X=X=X=X=X=X=X=X=X=X=X=X=X=X=X=X=X=X=X=X=X=X=X=X=X=X=X=X=X=X=X=X=X=X=X=X=X=X=X=X=X=X=X=X=X=X=X=X=X=X=X=X=X=X=X=X=X=X=X=X=X",
"=X=X=X=X=X=X=X=X=X=X=X=X=X=X=X=X=X=X=X=X=X=X=X=X=X=X=X=X=X=X=X=X=X=X=X=X=X=X=X=X=X=X=X=X=X=X=X=X=X=X=X=X=X=X=X=X=X=X=X=X=X=X=X=X",
"=X=X=X=X=X=X=X=X=X=X=X=X=X=X=X=X=X=X=X=X=X=X=X=X=X=X=X=X=X=X=X=X=X=X=X=X=X=X=X=X=X=X=X=X=X=X=X=X=X=X=X=X=X=X=X=X=X=X=X=X=X=X=X=X",
"=X=X=X=X=X=X=X=X=X=X=X=X=X=X=X=X=X=X=X=X=X=X=X=X=X=X=X=X=X=X=X=X=X=X=X=X=X=X=X=X=X=X=X=X=X=X=X=X=X=X=X=X=X=X=X=X=X=X=X=X=X=X=X=X"
};
