/* XPM */
static char *b4acf9dbf57d4c4ec0603abb365b21680XJk86WJb09C3ZzI[] = {
/* columns rows colors chars-per-pixel */
"64 64 198 2 ",
"   c #90EE90",
".  c #CA4D37",
"X  c #9C7654",
"o  c #9E7B5A",
"O  c #BE6959",
"+  c #A17C5C",
"@  c #BC725F",
"#  c #B4785E",
"$  c #A57F61",
"%  c #A87C60",
"&  c #BE7B68",
"*  c #B37C64",
"=  c #D65B47",
"-  c #C76959",
";  c #D36B5C",
":  c #DE6E5E",
">  c #DA6754",
",  c #CA6E61",
"<  c #C37367",
"1  c #C67568",
"2  c #CD766A",
"3  c #C67C6B",
"4  c #D27263",
"5  c #DC766A",
"6  c #D3796E",
"7  c #DD796C",
"8  c #D47C71",
"9  c #DD7E72",
"0  c #E27465",
"q  c #E47368",
"w  c #E47A6D",
"e  c #E57D72",
"r  c #E97D73",
"t  c #A2805E",
"y  c #A58263",
"u  c #AA8466",
"i  c #AC8769",
"p  c #AC8A6C",
"a  c #B0876C",
"s  c #BC876E",
"d  c #B28B6E",
"f  c #B38E71",
"g  c #B98C72",
"h  c #B59174",
"j  c #B99275",
"k  c #BC957A",
"l  c #BF987D",
"z  c #B2937C",
"x  c #D6816D",
"c  c #C58573",
"v  c #CB8374",
"b  c #C28876",
"n  c #CF8479",
"m  c #CB8D78",
"M  c #DD857B",
"N  c #D48A7C",
"B  c #DF887F",
"V  c #D78276",
"C  c #CB937F",
"Z  c #C1917B",
"A  c #E58175",
"S  c #E6857A",
"D  c #EA847B",
"F  c #E58A7E",
"G  c #E8897F",
"H  c #B89C84",
"J  c #BEA592",
"K  c #D58E83",
"L  c #DD8E82",
"P  c #C59781",
"I  c #CC9682",
"U  c #C59C84",
"Y  c #CB9984",
"T  c #CB9E8A",
"R  c #D69385",
"E  c #D89387",
"W  c #D39B87",
"Q  c #D69689",
"!  c #D59A8B",
"~  c #DA9C8D",
"^  c #DD9388",
"/  c #D89F92",
"(  c #E48C82",
")  c #EB8B83",
"_  c #F38D85",
"`  c #E59087",
"'  c #ED9187",
"]  c #ED948B",
"[  c #EA988F",
"{  c #E09389",
"}  c #F3938B",
"|  c #FA958F",
" . c #F4988C",
".. c #E29C92",
"X. c #ED9C94",
"o. c #F59790",
"O. c #F89590",
"+. c #F59B94",
"@. c #F99C96",
"#. c #F69F98",
"$. c #FA9E99",
"%. c #CCA28D",
"&. c #D3A08E",
"*. c #CAA792",
"=. c #CDA894",
"-. c #D4A494",
";. c #DCA394",
":. c #D2A895",
">. c #DFA599",
",. c #DEAD9E",
"<. c #E2A196",
"1. c #E6A59C",
"2. c #ECA39B",
"3. c #E8A89E",
"4. c #E3A99D",
"5. c #F1A096",
"6. c #F4A39C",
"7. c #FAA39D",
"8. c #F3A99D",
"9. c #DCAFA1",
"0. c #DFB8AF",
"q. c #D8B4A3",
"w. c #EDA6A0",
"e. c #E5ACA2",
"r. c #ECACA4",
"t. c #EFADA8",
"y. c #F6A7A1",
"u. c #FBA6A1",
"i. c #F3ABA4",
"p. c #FBAAA4",
"a. c #F7AFA8",
"s. c #FCAEA9",
"d. c #E5B2A6",
"f. c #E5B6AB",
"g. c #EDB5AD",
"h. c #E7BAAE",
"j. c #EBB9AE",
"k. c #F2B0A6",
"l. c #F3B3AC",
"z. c #FCB2AC",
"x. c #F6B8AD",
"c. c #F8B8AE",
"v. c #EFB6B0",
"b. c #E7BDB2",
"n. c #EFBAB2",
"m. c #F4B6B0",
"M. c #FDB6B1",
"N. c #F2BBB4",
"B. c #FDBAB5",
"V. c #F5BEB9",
"C. c #FDBEB9",
"Z. c #E8C2B7",
"A. c #F4C1BA",
"S. c #FDC2BD",
"D. c #FCC9BD",
"F. c #E9CFC5",
"G. c #F4C7C3",
"H. c #FEC6C1",
"J. c #F3CCC6",
"K. c #FECAC5",
"L. c #F2CECA",
"P. c #FECDC9",
"I. c #FFCECA",
"U. c #FED8C5",
"Y. c #F5D1CE",
"T. c #FED2CE",
"R. c #FFD2CD",
"E. c #FED7C7",
"W. c #EDD6D4",
"Q. c #F5D6D4",
"!. c #FED6D2",
"~. c #FFD6D2",
"^. c #FFDAD6",
"/. c #FEDAD5",
"(. c #FEDDD9",
"). c #FEDEDA",
"_. c #FEE6D5",
"`. c #FFE2DE",
"'. c #FFE4DF",
"]. c #FEE2DD",
"[. c #FFE4E0",
"{. c #FFE6E2",
"}. c #FFEAE6",
"|. c #FEEAE5",
" X c #FEEDEA",
".X c #FEEEEA",
"XX c #F4E7E6",
"oX c #FFF3E6",
"OX c #FFF1EE",
"+X c #FEF0ED",
"@X c #FFF5F2",
"#X c #FDF5F3",
"$X c #FFF8F6",
"%X c #FFF9F7",
"&X c #FFFAF9",
"*X c #FFFEFC",
"=X c #FFFFFF",
"-X c #FFFEFC",
/* pixels */
"                                                                                                                                ",
"                                                                                                                                ",
"                                                                                                                                ",
"                                                                                                                                ",
"                                                      !.!.K.S.T.                                                                ",
"                                                  ~.T.K.T.K.S.s.C.                                                              ",
"                                                I.I.C.K.C.B.c.C.@.P.                                                            ",
"                                              R.R.B.z.S.z.z.a.s.7.6.      G.                                                    ",
"                                              K.S.S.B.u.z.z.z.7.s.s.Y.^.~.K.@.B.                                                ",
"                                            (.K.B.u.7.p.8.7.7.p.y.p.C.K.S.s.7._                                                 ",
"                                  I.I.S.I.K.T.A.z.7.o.p.7.7.7.7.7.s.B.M.B.z.y._ Q.                                              ",
"                              S.I.I.S.C.H.B.B.B.a.@.@.p.7.O.+.7.$.y.z.!.#X&X}.S.Q.XXR.I.K.K.B.s.M.                              ",
"                              S.c.C.C.B.z.S.C.s.7.u.z.+.8.C.z.5.M.u.(.=X=X#X+X'./.S.K.T.K.M.C.B.7.6.                            ",
"                              6.u.u.7.7.B.7.7.7.@.+.#.p.i.|.-X-X@XB.&X&X#X+X).B.S.K.B.u.u.M.7.7.8.$.C.                          ",
"                              G.| o.o.O.u.o.7.$.7.O.O.7.P.=X@Xf.).=X#X+X'.].K.a.S.J.C.). X{.m.y.#.7.'                           ",
"                                S.+.O.5.o.7.7.#. .a.H./. X#X Xb.|. X}.'./.K.R.R.(.`.+X=X=X=Xq.L 7.o.o.                          ",
"                              XX.Xm.@.$.#.$.7.6.P.=X=X-X+X{.`.`./.(.^.^.T.K.K.T.^.'.|.+XOX|.P.w.8.) '                           ",
"                            T.I.K.M.7.O.s.+.+.].=X%X+X X{.(.T.K.I.I.R.T./.R.R.R.^./.`.].].P.J.D...} D L.                        ",
"                          R.I.S.K.M.y.$.s. .~.=X X}.).).^.R.R.I.I.R.T.I.S.I.K.R.R.I.R.K.K.A.g.n.E ] _                           ",
"                        L.s.H.S.a.i.p.u.o.z.+X_.].].R.I.I.K.K.I.R.S.c.+.6.R.K.R.I.I.R.I.A.x.m.v.N } s.J.                        ",
"                          $.o.6.^.~.A.6.y.C.oXE.R.~.I.I.T.I.K.K.~.l.) } B.R.R.R.R.P.P.T.S.x.j.R B s.p.p.z.H.                    ",
"                          y.+.).%X`.^.S.@.z.E.S.H.K.I.R.R.K.K.K.K.K.K.K.R.T.R.K.T.D.K.T.S.S.A...#.M.s.z.M.#.p.                  ",
"                          W.^. X@XY.A.K.M.8.A.l.A.H.K.R.I.K.^.~.K.R.R.P.K.T.T.P.U.D.K.T.P.R.K.!.>.g.s.s.z.y.} A.                ",
"                          #X#X).}.K.;.%.9.g.] : 7 B.I.R.R.R. X`.K.R.R.K.P.P.T.!.D.D.T.P.K.T.!.].:.T C.s.#.+.#.2.                ",
"                      {.^.).`.H.K.B.B.l.I g s x = 5.~.R.R.R. X(.R.R.K.K.R.R.R.~.T.T.T.K.R.T.~.(.Z.d.m.} o.) e X.                ",
"                    '.-X{.{.}.R.(.S.K.~.I.L.*.y P S.R.R.I.I.~.R.R.R.K.R.R.R.K.n.R.F X.K.R.I.R.K.V.N.g.S ] ( e g.                ",
"                  Y.S.~.C.K.R.M.H.M.B.C.z.).  F.d d h.!.K.I.R.R.R.I.K.I.R.T.J.&.C.w . F T.S.S.N.g.N.9.M ) S )                   ",
"                  I.7.C.s.C.H.M.K.B.C.C.s.}.  .X~.H y :.~.I.R.~.R.I.K.K.K.K./.].R.k.A ] K.N.N.n.m.N.8 9 S [                     ",
"                    B.C.M.S.K.B.I.C.C.H.C.`.^.I.I.K.Y o T ~.~.T.I.I.K.K.S.R.I.f.f -.I.K.V.n.n.N.A.Q , D e.                      ",
"                      K.p.z.B.u.B.7.p.s.y.H.V.n.N.A.S.l X :.!.c.K.K.K.K.K.A.h y <.H.H.S.A.n.V.j.! 1 5 S                         ",
"                        I.I.I.C.R.C.C.H.a.g.N.V.N.n.S.A.p + d. .8.T.K.K.,.+ g C.K.K.K.K.N.v.~ n n e ' )                         ",
"                      {.H.H.H.s.S.z.M.C.p.....r.v.m.C.R.f.y u ' c.R.K.,.t Z K.K.K.H.K.I.A.m.1.G } ) w w                         ",
"                    (.(.K.K.H.M.K.1.R Y Q / v c ,.H.H.K.K.T o P T.I.g.i g K.I.K.K.K.K.K.S.N.A.8.) ) e D                         ",
"                  {.~.(.K.I.I.M.I.N.<.! s i y p j %.d.A.A.c f y j.N.j t x.H.H.H.K.S.S.R.S.N.v.3.D G D `                         ",
"                ~.S.s.C.s.z.M.u.M.u.s.s.@.u.` n p X o h *.4 R p k %.o I N.v.m.N.S.0 F K.N.j.N.<.9 G D                           ",
"                P.M.p.m.i.s.C.s.H.M.C.H.s.H.M.M.g.e.P u y j W l d p t 4.a.x.g.m.x.> ; m.m.v.A.v 7 ) D                           ",
"                  [ ' 2.[ X.y.+.M.p.s.s.7.B.p.s.X.K e./ * $ f f f u u j.g.e.l.r.g.4 x V.m.A./ - q '                             ",
"                  v.) X.) X.y.$.B.u.s.s.$.M.u.$.8.M b @ ( L p u h u y e.K 3 N 2.r.v.m.g.m...O 8                                 ",
"                        / { z.y.C.y.i.i.X.N.#.w.w.#...( #.$.] i h u o & 2 S M N v.;.- 8.V.0.                                    ",
"                          [ #.} X.' ' X.) X.) ) [ ) 2 +.+.#.| ( y u o O ) D ' 5 n Z.>.                                          ",
"                          V.2.X.v.X.w.^ X.m.#.2.i.8 2 #.O.} ' O.3 p y # ) F ) q 1.                                              ",
"                            [ ) X.' L < 6 ..( L c 8 X.F [ #.] S ( g i + ) ) q X.                                                ",
"                              t.V.  1 ; ) 4 , 2 6 A D ] D ( D ] e m h o / r.                                                    ",
"                                      e r r r r     [ ) r ) G ) r ! k X                                                         ",
"                                          2.2.            2.r.m.    j t z                                                       ",
"                                                                    k i p                                                       ",
"                                                                    U f +                                                       ",
"                                                                    U h +                                                       ",
"                                                                    %.h +                                                       ",
"                                                                    %.h + J                                                     ",
"                                                                    U h + H                                                     ",
"                                                                    U h y h                                                     ",
"                                                                    P j p d                                                     ",
"                                                                    k h p u                                                     ",
"                                                                    j d p +                                                     ",
"                                                                    j h u X                                                     ",
"                                                                  q.g f i X                                                     ",
"                                                                  =.h f i o                                                     ",
"                                                                  l i y y X                                                     ",
"                                                                  i y o + +                                                     ",
"                                                                                                                                ",
"                                                                                                                                ",
"                                                                                                                                ",
"                                                                                                                                "
};

